<svg xmlns="http://www.w3.org/2000/svg" viewBox="0 0 64 80" x="0px" y="0px"><title>1</title><g><path d="M40.707,22.293a1,1,0,0,1,.2417,1.0234l-6.666,20A1,1,0,0,1,33.3564,44H33.334a1,1,0,0,1-.9336-.6406l-3.5435-9.2168L19.6411,30.6a1,1,0,0,1,.0425-1.8818l20-6.666A.9941.9941,0,0,1,40.707,22.293ZM56,32A24,24,0,1,1,32,8,24.0275,24.0275,0,0,1,56,32Zm-2,0A22,22,0,1,0,32,54,22.0249,22.0249,0,0,0,54,32Z"/></g><text x="0" y="79" fill="#000000" font-size="5px" font-weight="bold" font-family="'Helvetica Neue', Helvetica, Arial-Unicode, Arial, Sans-serif">Created by mim studio</text><text x="0" y="84" fill="#000000" font-size="5px" font-weight="bold" font-family="'Helvetica Neue', Helvetica, Arial-Unicode, Arial, Sans-serif">from the Noun Project</text></svg>