<svg xmlns="http://www.w3.org/2000/svg" xmlns:xlink="http://www.w3.org/1999/xlink" version="1.1" x="0px" y="0px" viewBox="0 0 24 30" enable-background="new 0 0 24 24" xml:space="preserve"><g><path d="M10.613,17.556c0.164,0.163,0.382,0.254,0.612,0.254c0.231,0,0.449-0.091,0.613-0.254l1.951-1.951   c0.336-0.337,0.337-0.886,0-1.225l-3.48-3.479c-0.328-0.326-0.896-0.326-1.225,0l-1.951,1.951   c-0.163,0.164-0.253,0.381-0.253,0.612s0.09,0.448,0.253,0.612L10.613,17.556z M9.743,11.467l3.48,3.571l-1.951,1.951   c-0.016,0.017-0.034,0.021-0.047,0.021L7.7,13.418L9.743,11.467z"/><path d="M3.297,17.913l3.479,3.48c0.164,0.163,0.381,0.253,0.612,0.253s0.448-0.09,0.612-0.253l1.95-1.951   c0.164-0.163,0.255-0.381,0.255-0.612s-0.091-0.449-0.254-0.612l-3.479-3.48c-0.328-0.326-0.896-0.326-1.225,0l-1.951,1.951   c-0.163,0.164-0.253,0.381-0.253,0.612S3.134,17.749,3.297,17.913z M5.906,15.304l3.479,3.572l-1.951,1.951   c-0.016,0.017-0.033,0.02-0.046,0.02l-3.525-3.592L5.906,15.304z"/><path d="M14.451,13.719c0.164,0.163,0.381,0.253,0.612,0.253s0.448-0.09,0.612-0.253l1.951-1.951   c0.163-0.164,0.253-0.381,0.253-0.612s-0.09-0.448-0.253-0.612l-3.48-3.479c-0.326-0.328-0.898-0.327-1.225-0.001l-1.951,1.951   c-0.163,0.164-0.253,0.381-0.253,0.612s0.09,0.448,0.253,0.612L14.451,13.719z M13.58,7.63l3.48,3.571l-1.951,1.951   c-0.016,0.017-0.033,0.02-0.046,0.02l-3.526-3.591L13.58,7.63z"/><path d="M18.288,9.882c0.164,0.163,0.381,0.253,0.612,0.253s0.448-0.09,0.612-0.253l1.951-1.951   c0.163-0.164,0.253-0.381,0.253-0.612s-0.09-0.448-0.253-0.612l-3.48-3.48c-0.327-0.325-0.894-0.327-1.225,0l-1.951,1.952   c-0.336,0.338-0.336,0.886,0,1.225L18.288,9.882z M17.417,3.792l3.48,3.572l-1.951,1.951c-0.016,0.017-0.033,0.02-0.046,0.02   l-3.526-3.592L17.417,3.792z"/><path d="M1.269,15.692l-0.364,0.364c-0.337,0.338-0.337,0.887,0,1.225l6.375,6.374c0.164,0.163,0.381,0.253,0.612,0.253   c0.231,0,0.448-0.09,0.612-0.253L23.659,8.5c0.337-0.338,0.336-0.887-0.001-1.225l-6.374-6.374c-0.328-0.326-0.896-0.326-1.225,0   l-0.363,0.363l-0.928-0.928c-0.328-0.326-0.896-0.326-1.225,0l-2.746,2.746c0,0-0.001,0-0.001,0.001s0,0.001-0.001,0.001   L8.424,5.458C8.423,5.458,8.422,5.459,8.422,5.459S8.421,5.461,8.42,5.461l-2.13,2.13c-0.118,0.118-0.15,0.298-0.08,0.45   C6.457,8.578,6.345,9.218,5.93,9.633c-0.407,0.409-1.062,0.521-1.59,0.279c-0.152-0.069-0.331-0.038-0.45,0.08L0.342,13.54   c-0.163,0.164-0.253,0.381-0.253,0.612s0.09,0.448,0.253,0.612L1.269,15.692z M16.718,1.468l6.375,6.467L7.938,23.088   c-0.016,0.017-0.033,0.02-0.046,0.02l-6.421-6.485L16.718,1.468z M4.272,10.741c0.781,0.246,1.649,0.032,2.224-0.543   C7.077,9.616,7.28,8.753,7.04,7.976l0.558-0.551l0.429,0.428C8.105,7.931,8.207,7.97,8.309,7.97s0.205-0.039,0.283-0.118   c0.156-0.156,0.156-0.409-0.001-0.565L8.167,6.863L8.716,6.32l0.421,0.421C9.216,6.82,9.318,6.859,9.421,6.859   S9.626,6.82,9.704,6.741c0.156-0.156,0.156-0.41,0-0.566L9.286,5.758l0.549-0.542l0.413,0.414c0.078,0.079,0.181,0.118,0.283,0.118   s0.204-0.039,0.282-0.117c0.157-0.156,0.157-0.409,0.001-0.565l-0.411-0.411l0.702-0.693l0.406,0.406   c0.078,0.078,0.181,0.117,0.283,0.117s0.205-0.039,0.283-0.117c0.156-0.156,0.156-0.41,0-0.566l-0.403-0.403l0.549-0.542   l0.398,0.399c0.078,0.079,0.181,0.118,0.283,0.118s0.204-0.039,0.282-0.117c0.157-0.156,0.157-0.409,0.001-0.565l-0.396-0.396   l0.549-0.542l0.393,0.393c0.078,0.078,0.181,0.117,0.283,0.117s0.205-0.039,0.283-0.117c0.156-0.156,0.156-0.41,0-0.566   l-0.389-0.389l0.288-0.285l0.928,0.927L1.846,15.115l-0.938-1.008l0.219-0.219l0.431,0.432c0.078,0.079,0.181,0.118,0.283,0.118   s0.204-0.039,0.282-0.117c0.157-0.156,0.157-0.409,0.001-0.565l-0.432-0.433l0.447-0.447l0.432,0.432   c0.078,0.079,0.181,0.118,0.283,0.118s0.204-0.039,0.282-0.117c0.157-0.156,0.157-0.409,0.001-0.565l-0.433-0.433l0.447-0.447   l0.433,0.433c0.078,0.078,0.181,0.117,0.283,0.117s0.205-0.039,0.283-0.117c0.156-0.156,0.156-0.41,0-0.566l-0.433-0.433   L4.272,10.741z"/></g><text x="0" y="39" fill="#000000" font-size="5px" font-weight="bold" font-family="'Helvetica Neue', Helvetica, Arial-Unicode, Arial, Sans-serif">Created by Atif Arshad</text><text x="0" y="44" fill="#000000" font-size="5px" font-weight="bold" font-family="'Helvetica Neue', Helvetica, Arial-Unicode, Arial, Sans-serif">from the Noun Project</text></svg>