<svg xmlns:dc="http://purl.org/dc/elements/1.1/" xmlns:cc="http://creativecommons.org/ns#" xmlns:rdf="http://www.w3.org/1999/02/22-rdf-syntax-ns#" xmlns:svg="http://www.w3.org/2000/svg" xmlns="http://www.w3.org/2000/svg" xmlns:sodipodi="http://sodipodi.sourceforge.net/DTD/sodipodi-0.dtd" xmlns:inkscape="http://www.inkscape.org/namespaces/inkscape" viewBox="0 0 26.458333 33.0729175" version="1.1" x="0px" y="0px"><g transform="translate(0,-270.54165)"><path style="color:#000000;font-style:normal;font-variant:normal;font-weight:normal;font-stretch:normal;font-size:medium;line-height:normal;font-family:sans-serif;font-variant-ligatures:normal;font-variant-position:normal;font-variant-caps:normal;font-variant-numeric:normal;font-variant-alternates:normal;font-feature-settings:normal;text-indent:0;text-align:start;text-decoration:none;text-decoration-line:none;text-decoration-style:solid;text-decoration-color:#000000;letter-spacing:normal;word-spacing:normal;text-transform:none;writing-mode:lr-tb;direction:ltr;text-orientation:mixed;dominant-baseline:auto;baseline-shift:baseline;text-anchor:start;white-space:normal;shape-padding:0;clip-rule:nonzero;display:inline;overflow:visible;visibility:visible;opacity:1;isolation:auto;mix-blend-mode:normal;color-interpolation:sRGB;color-interpolation-filters:linearRGB;solid-color:#000000;solid-opacity:1;vector-effect:none;fill:#000000;fill-opacity:1;fill-rule:nonzero;stroke:none;stroke-width:1.06966925;stroke-linecap:round;stroke-linejoin:round;stroke-miterlimit:4;stroke-dasharray:none;stroke-dashoffset:0;stroke-opacity:1;color-rendering:auto;image-rendering:auto;shape-rendering:auto;text-rendering:auto;enable-background:accumulate" d="m 13.228374,272.12915 c 2.902351,0 5.530754,0.43849 7.481267,1.17643 0.975259,0.36897 1.783703,0.81078 2.377689,1.34208 0.593986,0.5313 0.989749,1.18892 0.989755,1.91759 v 14.68939 c -0.131036,0.63603 -0.58129,1.2674 -0.989755,1.63878 -0.593986,0.5313 -1.40243,0.97366 -2.377689,1.34263 -1.950513,0.73794 -4.578916,1.17643 -7.481267,1.17643 -2.902354,0 -5.5312995,-0.43849 -7.4818125,-1.17643 -0.975259,-0.36897 -1.783703,-0.81133 -2.377689,-1.34263 -0.494385,-0.51545 -0.858105,-1.02026 -0.98758,-1.63878 v -14.97795 c -0.0014,-0.11024 0.03101,-0.21828 0.09289,-0.30967 0.148463,-0.49083 0.468448,-0.9381 0.894689,-1.31936 0.593986,-0.5313 1.40243,-0.97311 2.377689,-1.34208 1.950513,-0.73794 4.5794595,-1.17643 7.4818135,-1.17643 z m 0,1.06814 c -2.792439,0 -5.3184745,0.43262 -7.0999295,1.1066 -0.890725,0.33698 -1.592938,0.73801 -2.042519,1.14015 -0.82716,0.76256 -0.727483,1.57863 0,2.24026 0.449579,0.40214 1.151794,0.80261 2.042519,1.1396 1.781455,0.67398 4.3074855,1.10714 7.0999295,1.10714 2.792442,0 5.320101,-0.43316 7.101556,-1.10714 0.890726,-0.33699 1.593486,-0.73746 2.043061,-1.1396 0.834681,-0.76102 0.666454,-1.63229 0,-2.24026 -0.449577,-0.40214 -1.152335,-0.80317 -2.043061,-1.14015 -1.781452,-0.67398 -4.309119,-1.1066 -7.101556,-1.1066 z m 9.760635,5.36567 c -0.58391,0.4943 -1.355708,0.91036 -2.279368,1.2598 -1.950516,0.73795 -4.578914,1.17643 -7.481267,1.17643 -2.902356,0 -5.5312965,-0.43848 -7.4818125,-1.17643 -0.923563,-0.34941 -1.694935,-0.76558 -2.278822,-1.2598 v 2.59757 c 0.04895,0.30123 0.237264,0.61914 0.618186,0.95987 0.449579,0.40214 1.151794,0.801 2.042519,1.13799 1.781455,0.67398 4.3074855,1.10875 7.0999295,1.10875 2.792442,0 5.320101,-0.43477 7.101556,-1.10875 0.890726,-0.33699 1.593486,-0.73585 2.043061,-1.13799 0.377743,-0.33788 0.565137,-0.65329 0.616018,-0.9523 z m 0,4.43394 c -0.583927,0.49435 -1.355627,0.91032 -2.279368,1.2598 -1.950516,0.73794 -4.578914,1.17643 -7.481267,1.17643 -2.902356,0 -5.5312965,-0.43849 -7.4818125,-1.17643 -0.923505,-0.34939 -1.694948,-0.76507 -2.278822,-1.25926 v 2.59865 c 0.04886,0.30091 0.237095,0.61738 0.618186,0.95825 0.449579,0.40214 1.151794,0.80318 2.042519,1.14016 1.781455,0.67398 4.3074855,1.10658 7.0999295,1.10658 2.792442,0 5.320101,-0.4326 7.101556,-1.10658 0.890726,-0.33698 1.593486,-0.73802 2.043061,-1.14016 0.377682,-0.33781 0.565098,-0.65163 0.616018,-0.95013 z m 0,4.43611 c -0.583927,0.49434 -1.355627,0.91033 -2.279368,1.2598 -1.950516,0.73794 -4.578914,1.17643 -7.481267,1.17643 -2.902356,0 -5.5312965,-0.43849 -7.4818125,-1.17643 -0.923505,-0.34939 -1.694948,-0.76508 -2.278822,-1.25926 v 3.70633 c 0.04897,0.30122 0.237264,0.61915 0.618186,0.95987 0.449581,0.40214 1.151794,0.80046 2.042519,1.13744 1.781455,0.67399 4.3074905,1.10713 7.0999295,1.10713 2.792437,0 5.320104,-0.43314 7.101556,-1.10713 0.890726,-0.33698 1.593484,-0.7353 2.043061,-1.13744 0.377743,-0.33788 0.565133,-0.6533 0.616018,-0.9523 z"/></g><text x="0" y="41.458334" fill="#000000" font-size="5px" font-weight="bold" font-family="'Helvetica Neue', Helvetica, Arial-Unicode, Arial, Sans-serif">Created by Icons Bazaar</text><text x="0" y="46.458334" fill="#000000" font-size="5px" font-weight="bold" font-family="'Helvetica Neue', Helvetica, Arial-Unicode, Arial, Sans-serif">from the Noun Project</text></svg>