<svg xmlns="http://www.w3.org/2000/svg" xmlns:xlink="http://www.w3.org/1999/xlink" xml:space="preserve" version="1.1" style="shape-rendering:geometricPrecision;text-rendering:geometricPrecision;image-rendering:optimizeQuality;" viewBox="0 0 304.88 684.5375" x="0px" y="0px" fill-rule="evenodd" clip-rule="evenodd"><defs><style type="text/css">
   
    .fil0 {fill:black}
   
  </style></defs><g><path class="fil0" d="M60.98 0l182.91 0c16.22,0 31.63,6.45 43.08,17.9 11.46,11.46 17.91,26.87 17.91,43.08l0 425.66c0,16.21 -6.45,31.62 -17.91,43.08 -11.45,11.45 -26.86,17.9 -43.08,17.9l-182.91 0c-16.21,0 -31.62,-6.45 -43.08,-17.9 -11.46,-11.46 -17.9,-26.87 -17.9,-43.08l0 -425.66c0,-16.21 6.44,-31.62 17.9,-43.08 11.46,-11.45 26.87,-17.9 43.08,-17.9zm-34.63 421.61l252.17 0 0 -332.65 -252.17 0 0 332.65zm252.17 26.36l-252.17 0 0 38.67c0,9.21 3.68,17.94 10.19,24.44 6.5,6.5 15.23,10.18 24.44,10.18l182.91 0c9.21,0 17.94,-3.67 24.45,-10.18 6.5,-6.5 10.18,-15.23 10.18,-24.44l0 -38.67zm-252.17 -385.37l252.17 0 0 -1.62c0,-9.21 -3.68,-17.94 -10.18,-24.44 -6.51,-6.5 -15.24,-10.18 -24.45,-10.18l-182.91 0c-9.21,0 -17.94,3.68 -24.44,10.18 -6.51,6.5 -10.19,15.23 -10.19,24.44l0 1.62z"/><path class="fil0" d="M152.44 462.98c11.96,0 21.65,9.69 21.65,21.65 0,11.95 -9.69,21.64 -21.65,21.64 -11.95,0 -21.64,-9.69 -21.64,-21.64 0,-11.96 9.69,-21.65 21.64,-21.65z"/></g><text x="0" y="562.63" fill="#000000" font-size="5px" font-weight="bold" font-family="'Helvetica Neue', Helvetica, Arial-Unicode, Arial, Sans-serif">Created by Alice-vector</text><text x="0" y="567.63" fill="#000000" font-size="5px" font-weight="bold" font-family="'Helvetica Neue', Helvetica, Arial-Unicode, Arial, Sans-serif">from the Noun Project</text></svg>