<svg xmlns="http://www.w3.org/2000/svg" xmlns:xlink="http://www.w3.org/1999/xlink" xml:space="preserve" version="1.1" style="shape-rendering:geometricPrecision;text-rendering:geometricPrecision;image-rendering:optimizeQuality;" viewBox="0 0 474.24 524.55" x="0px" y="0px" fill-rule="evenodd" clip-rule="evenodd"><defs><style type="text/css">
   
    .fil0 {fill:black}
    .fil1 {fill:black;fill-rule:nonzero}
   
  </style></defs><g><path class="fil0" d="M62.04 23.99l12.92 0 0 28.58c0,14.08 11.48,25.56 25.56,25.56 14.08,0 25.56,-11.48 25.56,-25.56l0 -28.58 124.65 0 0 28.58c0,14.08 11.48,25.56 25.56,25.56 14.08,0 25.56,-11.48 25.56,-25.56l0 -28.58 12.92 0c34.12,0 62.04,27.92 62.04,62.04l0 122.62c54.51,4.2 97.43,49.75 97.43,105.34 0,58.35 -47.31,105.65 -105.66,105.65 -36.39,0 -68.49,-18.4 -87.49,-46.41l-219.05 0c-34.12,0 -62.04,-27.92 -62.04,-62.04l0 -225.16c0,-34.12 27.92,-62.04 62.04,-62.04zm292.94 185.21l0 -105.94 -333.15 0 0 207.93c0,22.12 18.09,40.21 40.21,40.21l207.71 0c-4.4,-11.63 -6.82,-24.24 -6.82,-37.41 0,-53.74 40.13,-98.11 92.05,-104.79zm13.6 20.96c-46.29,0 -83.82,37.53 -83.82,83.83 0,46.29 37.53,83.82 83.82,83.82 46.3,0 83.83,-37.53 83.83,-83.82 0,-46.3 -37.53,-83.83 -83.83,-83.83z"/><path class="fil0" d="M54.52 149.78l33.42 0c1.39,0 2.53,1.14 2.53,2.53l0 33.43c0,1.39 -1.14,2.53 -2.53,2.53l-33.42 0c-1.39,0 -2.53,-1.14 -2.53,-2.53l0 -33.43c0,-1.39 1.14,-2.53 2.53,-2.53z"/><path class="fil0" d="M113.1 149.78l33.44 0c1.39,0 2.53,1.14 2.53,2.53l0 33.43c0,1.39 -1.14,2.53 -2.53,2.53l-33.44 0c-1.39,0 -2.53,-1.14 -2.53,-2.53l0 -33.43c0,-1.39 1.14,-2.53 2.53,-2.53z"/><path class="fil0" d="M171.69 149.78l33.43 0c1.39,0 2.53,1.14 2.53,2.53l0 33.43c0,1.39 -1.14,2.53 -2.53,2.53l-33.43 0c-1.39,0 -2.53,-1.14 -2.53,-2.53l0 -33.43c0,-1.39 1.14,-2.53 2.53,-2.53z"/><path class="fil0" d="M230.28 149.78l33.42 0c1.39,0 2.53,1.14 2.53,2.53l0 33.43c0,1.39 -1.14,2.53 -2.53,2.53l-33.42 0c-1.39,0 -2.53,-1.14 -2.53,-2.53l0 -33.43c0,-1.39 1.14,-2.53 2.53,-2.53z"/><path class="fil0" d="M288.87 149.78l33.43 0c1.39,0 2.53,1.14 2.53,2.53l0 33.43c0,1.39 -1.14,2.53 -2.53,2.53l-33.43 0c-1.39,0 -2.53,-1.14 -2.53,-2.53l0 -33.43c0,-1.39 1.14,-2.53 2.53,-2.53z"/><path class="fil0" d="M54.52 208.09l33.42 0c1.39,0 2.53,1.14 2.53,2.53l0 33.43c0,1.39 -1.14,2.53 -2.53,2.53l-33.42 0c-1.39,0 -2.53,-1.14 -2.53,-2.53l0 -33.43c0,-1.39 1.14,-2.53 2.53,-2.53z"/><path class="fil0" d="M54.52 266.39l33.42 0c1.39,0 2.53,1.14 2.53,2.53l0 33.42c0,1.39 -1.14,2.53 -2.53,2.53l-33.42 0c-1.39,0 -2.53,-1.14 -2.53,-2.53l0 -33.42c0,-1.39 1.14,-2.53 2.53,-2.53z"/><path class="fil0" d="M113.1 208.09l33.44 0c1.39,0 2.53,1.14 2.53,2.53l0 33.43c0,1.39 -1.14,2.53 -2.53,2.53l-33.44 0c-1.39,0 -2.53,-1.14 -2.53,-2.53l0 -33.43c0,-1.39 1.14,-2.53 2.53,-2.53z"/><path class="fil0" d="M113.1 266.39l33.44 0c1.39,0 2.53,1.14 2.53,2.53l0 33.42c0,1.39 -1.14,2.53 -2.53,2.53l-33.44 0c-1.39,0 -2.53,-1.14 -2.53,-2.53l0 -33.42c0,-1.39 1.14,-2.53 2.53,-2.53z"/><path class="fil0" d="M171.69 208.09l33.43 0c1.39,0 2.53,1.14 2.53,2.53l0 33.43c0,1.39 -1.14,2.53 -2.53,2.53l-33.43 0c-1.39,0 -2.53,-1.14 -2.53,-2.53l0 -33.43c0,-1.39 1.14,-2.53 2.53,-2.53z"/><path class="fil0" d="M171.69 266.39l33.43 0c1.39,0 2.53,1.14 2.53,2.53l0 33.42c0,1.39 -1.14,2.53 -2.53,2.53l-33.43 0c-1.39,0 -2.53,-1.14 -2.53,-2.53l0 -33.42c0,-1.39 1.14,-2.53 2.53,-2.53z"/><path class="fil0" d="M230.28 208.09l33.42 0c1.39,0 2.53,1.14 2.53,2.53l0 33.43c0,1.39 -1.14,2.53 -2.53,2.53l-33.42 0c-1.39,0 -2.53,-1.14 -2.53,-2.53l0 -33.43c0,-1.39 1.14,-2.53 2.53,-2.53z"/><path class="fil1" d="M359.39 266.25c0,-5.06 4.1,-9.16 9.16,-9.16 5.05,0 9.15,4.1 9.15,9.16l0.04 42.19 25.2 13.16c4.48,2.34 6.22,7.87 3.88,12.35 -2.34,4.48 -7.87,6.22 -12.35,3.88l-29.91 -15.62c-3.04,-1.49 -5.13,-4.61 -5.13,-8.22l-0.04 -47.74z"/><path class="fil0" d="M100.52 0.01c7.74,0 14.08,6.33 14.08,14.07l0 38.49c0,7.74 -6.34,14.07 -14.08,14.07 -7.74,0 -14.07,-6.33 -14.07,-14.07l0 -38.49c0,-7.74 6.33,-14.07 14.07,-14.07z"/><path class="fil0" d="M276.29 0.01c7.74,0 14.07,6.33 14.07,14.07l0 38.49c0,7.74 -6.33,14.07 -14.07,14.07 -7.74,0 -14.07,-6.33 -14.07,-14.07l0 -38.49c0,-7.74 6.33,-14.07 14.07,-14.07z"/></g><text x="0" y="434.64" fill="#000000" font-size="5px" font-weight="bold" font-family="'Helvetica Neue', Helvetica, Arial-Unicode, Arial, Sans-serif">Created by Alice-vector</text><text x="0" y="439.64" fill="#000000" font-size="5px" font-weight="bold" font-family="'Helvetica Neue', Helvetica, Arial-Unicode, Arial, Sans-serif">from the Noun Project</text></svg>