<svg xmlns="http://www.w3.org/2000/svg" xmlns:cc="http://creativecommons.org/ns#" xmlns:dc="http://purl.org/dc/elements/1.1/" xmlns:rdf="http://www.w3.org/1999/02/22-rdf-syntax-ns#" version="1.1" viewBox="0 0 48 60" x="0px" y="0px"><g shape-rendering="auto"><path d="m24 19c-2.7496 0-5 2.2504-5 5s2.2504 5 5 5 5-2.2504 5-5-2.2504-5-5-5zm0 2c1.6687 0 3 1.3313 3 3s-1.3313 3-3 3-3-1.3313-3-3 1.3313-3 3-3z" color="#000000" color-rendering="auto" dominant-baseline="auto" image-rendering="auto" solid-color="#000000" style="font-feature-settings:normal;font-variant-alternates:normal;font-variant-caps:normal;font-variant-ligatures:normal;font-variant-numeric:normal;font-variant-position:normal;isolation:auto;mix-blend-mode:normal;paint-order:fill markers stroke;shape-padding:0;text-decoration-color:#000000;text-decoration-line:none;text-decoration-style:solid;text-indent:0;text-orientation:mixed;text-transform:none;white-space:normal;"/><path d="m11.959 10.971a1.0001 1.0001 0 0 0-0.6875 0.30274c-3.3751 3.3754-5.2715 7.9532-5.2715 12.727 2e-7 4.7737 1.8978 9.3531 5.2734 12.729a1.0001 1.0001 0 1 0 1.4141-1.4141c-3.0011-3.0009-4.6875-7.0704-4.6875-11.314 1e-7 -4.2437 1.6849-8.3117 4.6855-11.312a1.0001 1.0001 0 0 0-0.72656-1.7168z" color="#000000" color-rendering="auto" dominant-baseline="auto" image-rendering="auto" solid-color="#000000" style="font-feature-settings:normal;font-variant-alternates:normal;font-variant-caps:normal;font-variant-ligatures:normal;font-variant-numeric:normal;font-variant-position:normal;isolation:auto;mix-blend-mode:normal;paint-order:fill markers stroke;shape-padding:0;text-decoration-color:#000000;text-decoration-line:none;text-decoration-style:solid;text-indent:0;text-orientation:mixed;text-transform:none;white-space:normal;"/><path d="m36.01 10.969a1.0001 1.0001 0 0 0-0.69727 1.7168c3.0011 3.0009 4.6875 7.0704 4.6875 11.314 0 4.2437-1.6849 8.3117-4.6855 11.312a1.0001 1.0001 0 1 0 1.4141 1.4141c3.3751-3.3754 5.2715-7.9532 5.2715-12.727 0-4.7737-1.8978-9.3531-5.2734-12.729a1.0001 1.0001 0 0 0-0.7168-0.30273z" color="#000000" color-rendering="auto" dominant-baseline="auto" image-rendering="auto" solid-color="#000000" style="font-feature-settings:normal;font-variant-alternates:normal;font-variant-caps:normal;font-variant-ligatures:normal;font-variant-numeric:normal;font-variant-position:normal;isolation:auto;mix-blend-mode:normal;paint-order:fill markers stroke;shape-padding:0;text-decoration-color:#000000;text-decoration-line:none;text-decoration-style:solid;text-indent:0;text-orientation:mixed;text-transform:none;white-space:normal;"/><path d="m16.203 15.213a1.0001 1.0001 0 0 0-0.6875 0.30078c-2.2503 2.2502-3.5156 5.304-3.5156 8.4863 0 3.1821 1.2637 6.2342 3.5137 8.4844a1.0006 1.0006 0 1 0 1.416-1.4141c-1.8755-1.8756-2.9297-4.4179-2.9297-7.0703 0-2.6527 1.0539-5.1947 2.9297-7.0703a1.0001 1.0001 0 0 0-0.72656-1.7168z" color="#000000" color-rendering="auto" dominant-baseline="auto" image-rendering="auto" solid-color="#000000" style="font-feature-settings:normal;font-variant-alternates:normal;font-variant-caps:normal;font-variant-ligatures:normal;font-variant-numeric:normal;font-variant-position:normal;isolation:auto;mix-blend-mode:normal;paint-order:fill markers stroke;shape-padding:0;text-decoration-color:#000000;text-decoration-line:none;text-decoration-style:solid;text-indent:0;text-orientation:mixed;text-transform:none;white-space:normal;"/><path d="m31.768 15.213a1.0001 1.0001 0 0 0-0.69727 1.7168c1.8755 1.8756 2.9297 4.4179 2.9297 7.0703 0 2.6527-1.0539 5.1947-2.9297 7.0703a1.0006 1.0006 0 1 0 1.4141 1.416c2.2503-2.2502 3.5156-5.304 3.5156-8.4863 0-3.1821-1.2637-6.2342-3.5137-8.4844a1.0001 1.0001 0 0 0-0.71875-0.30273z" color="#000000" color-rendering="auto" dominant-baseline="auto" image-rendering="auto" solid-color="#000000" style="font-feature-settings:normal;font-variant-alternates:normal;font-variant-caps:normal;font-variant-ligatures:normal;font-variant-numeric:normal;font-variant-position:normal;isolation:auto;mix-blend-mode:normal;paint-order:fill markers stroke;shape-padding:0;text-decoration-color:#000000;text-decoration-line:none;text-decoration-style:solid;text-indent:0;text-orientation:mixed;text-transform:none;white-space:normal;"/></g><text x="0" y="63" fill="#000000" font-size="5px" font-weight="bold" font-family="'Helvetica Neue', Helvetica, Arial-Unicode, Arial, Sans-serif">Created by RomStu</text><text x="0" y="68" fill="#000000" font-size="5px" font-weight="bold" font-family="'Helvetica Neue', Helvetica, Arial-Unicode, Arial, Sans-serif">from the Noun Project</text></svg>