<svg xmlns="http://www.w3.org/2000/svg" data-name="Layer 105" viewBox="0 0 100 125" x="0px" y="0px"><title>100. Heater</title><path d="M85,49H81V47.5a8.5,8.5,0,0,0-16-4,8.49,8.49,0,0,0-15,0,8.49,8.49,0,0,0-15,0,8.5,8.5,0,0,0-16,4V49H15a1,1,0,0,0-1,1v5a1,1,0,0,0,1,1h4V74.71H15a1,1,0,0,0-1,1v5a1,1,0,0,0,1,1h4v.79a8.5,8.5,0,0,0,16,4,8.49,8.49,0,0,0,15,0,8.49,8.49,0,0,0,15,0,8.5,8.5,0,0,0,16-4v-.79h4a1,1,0,0,0,1-1v-5a1,1,0,0,0-1-1H81V56h4a1,1,0,0,0,1-1V50A1,1,0,0,0,85,49ZM19,79.71H16v-3h3ZM19,54H16V51h3ZM34,82.5a6.5,6.5,0,0,1-13,0v-35a6.5,6.5,0,0,1,13,0Zm15,0a6.5,6.5,0,0,1-13,0v-35a6.5,6.5,0,0,1,13,0Zm15,0a6.5,6.5,0,0,1-13,0v-35a6.5,6.5,0,0,1,13,0Zm15,0a6.5,6.5,0,0,1-13,0v-35a6.5,6.5,0,0,1,13,0Zm5-5.79v3H81v-3ZM84,54H81V51h3Z"/><path d="M40.13,18.14a8.72,8.72,0,0,0-2.08-5.42A4.77,4.77,0,0,1,36.79,10a1,1,0,0,0-2,0,6,6,0,0,0,1.41,3.57l.22.32a6.72,6.72,0,0,1,1.71,4.25,4.32,4.32,0,0,1-1.06,3l-.38.48a6.62,6.62,0,0,0-1.9,4.71,7.3,7.3,0,0,0,1.58,4.64,5.34,5.34,0,0,1,1.23,3.5,1,1,0,0,0,2,0,7.15,7.15,0,0,0-1.52-4.55L38,29.79a5.36,5.36,0,0,1-1.23-3.5A4.21,4.21,0,0,1,37.4,24a10,10,0,0,1,.83-1.11A6.66,6.66,0,0,0,40.13,18.14Z"/><path d="M48.49,18.14a8.66,8.66,0,0,0-2.08-5.42A4.77,4.77,0,0,1,45.15,10a1,1,0,0,0-2,0,6,6,0,0,0,1.41,3.57,3.71,3.71,0,0,0,.23.32,6.77,6.77,0,0,1,1.7,4.25,4.32,4.32,0,0,1-1.06,3l-.38.48a6.66,6.66,0,0,0-1.9,4.71,7.3,7.3,0,0,0,1.58,4.64A5.29,5.29,0,0,1,46,34.43a1,1,0,1,0,2,0,7.15,7.15,0,0,0-1.53-4.55l-.06-.09a5.36,5.36,0,0,1-1.23-3.5A4.21,4.21,0,0,1,45.76,24a10,10,0,0,1,.83-1.11A6.66,6.66,0,0,0,48.49,18.14Z"/><path d="M56.85,18.14a8.66,8.66,0,0,0-2.08-5.42A4.77,4.77,0,0,1,53.51,10a1,1,0,0,0-2,0,6,6,0,0,0,1.41,3.57c.08.11.15.22.23.32a6.77,6.77,0,0,1,1.7,4.25,4.27,4.27,0,0,1-1.06,3l-.38.48a6.66,6.66,0,0,0-1.9,4.71,7.24,7.24,0,0,0,1.59,4.64,5.34,5.34,0,0,1,1.23,3.5,1,1,0,0,0,2,0,7.15,7.15,0,0,0-1.53-4.55l-.06-.09a5.36,5.36,0,0,1-1.23-3.5A4.21,4.21,0,0,1,54.12,24,10,10,0,0,1,55,22.85,6.66,6.66,0,0,0,56.85,18.14Z"/><path d="M65.21,18.14a8.66,8.66,0,0,0-2.08-5.42A4.84,4.84,0,0,1,61.87,10a1,1,0,0,0-2,0,6,6,0,0,0,1.41,3.57c.08.11.15.22.23.32a6.71,6.71,0,0,1,1.7,4.25,4.27,4.27,0,0,1-1.06,3l-.38.48a6.66,6.66,0,0,0-1.9,4.71,7.24,7.24,0,0,0,1.59,4.64,5.34,5.34,0,0,1,1.23,3.5,1,1,0,1,0,2,0,7.15,7.15,0,0,0-1.53-4.55l-.06-.09a5.36,5.36,0,0,1-1.23-3.5A4.21,4.21,0,0,1,62.48,24a11.43,11.43,0,0,1,.83-1.11A6.62,6.62,0,0,0,65.21,18.14Z"/><text x="0" y="115" fill="#000000" font-size="5px" font-weight="bold" font-family="'Helvetica Neue', Helvetica, Arial-Unicode, Arial, Sans-serif">Created by Pascal Heß</text><text x="0" y="120" fill="#000000" font-size="5px" font-weight="bold" font-family="'Helvetica Neue', Helvetica, Arial-Unicode, Arial, Sans-serif">from the Noun Project</text></svg>