<svg xmlns="http://www.w3.org/2000/svg" xmlns:xlink="http://www.w3.org/1999/xlink" version="1.1" x="0px" y="0px" viewBox="0 0 80 100" style="enable-background:new 0 0 80 80;" xml:space="preserve"><g><circle cx="24" cy="24" r="2"/><circle cx="56" cy="24" r="2"/><circle cx="24" cy="56" r="2"/><circle cx="56" cy="56" r="2"/><path d="M52,27H28c-0.5522,0-1,0.4478-1,1v24c0,0.5522,0.4478,1,1,1h24c0.5522,0,1-0.4478,1-1V28C53,27.4478,52.5522,27,52,27z    M51,51H29V29h22V51z"/><path d="M67,34c0.5522,0,1-0.4478,1-1s-0.4478-1-1-1h-5v-5h5c0.5522,0,1-0.4478,1-1s-0.4478-1-1-1h-5v-6c0-0.5522-0.4478-1-1-1h-6   v-5c0-0.5522-0.4478-1-1-1s-1,0.4478-1,1v5h-5v-5c0-0.5522-0.4478-1-1-1s-1,0.4478-1,1v5h-5v-5c0-0.5522-0.4478-1-1-1   s-1,0.4478-1,1v5h-5v-5c0-0.5522-0.4478-1-1-1s-1,0.4478-1,1v5h-5v-5c0-0.5522-0.4478-1-1-1s-1,0.4478-1,1v5h-6   c-0.5522,0-1,0.4478-1,1v6h-5c-0.5522,0-1,0.4478-1,1s0.4478,1,1,1h5v5h-5c-0.5522,0-1,0.4478-1,1s0.4478,1,1,1h5v5h-5   c-0.5522,0-1,0.4478-1,1s0.4478,1,1,1h5v5h-5c-0.5522,0-1,0.4478-1,1s0.4478,1,1,1h5v5h-5c-0.5522,0-1,0.4478-1,1s0.4478,1,1,1h5v6   c0,0.5522,0.4478,1,1,1h6v5c0,0.5522,0.4478,1,1,1s1-0.4478,1-1v-5h5v5c0,0.5522,0.4478,1,1,1s1-0.4478,1-1v-5h5v5   c0,0.5522,0.4478,1,1,1s1-0.4478,1-1v-5h5v5c0,0.5522,0.4478,1,1,1s1-0.4478,1-1v-5h5v5c0,0.5522,0.4478,1,1,1s1-0.4478,1-1v-5h6   c0.5522,0,1-0.4478,1-1v-6h5c0.5522,0,1-0.4478,1-1s-0.4478-1-1-1h-5v-5h5c0.5522,0,1-0.4478,1-1s-0.4478-1-1-1h-5v-5h5   c0.5522,0,1-0.4478,1-1s-0.4478-1-1-1h-5v-5H67z M60,60H20V20h40V60z"/></g><text x="0" y="95" fill="#000000" font-size="5px" font-weight="bold" font-family="'Helvetica Neue', Helvetica, Arial-Unicode, Arial, Sans-serif">Created by Icon Lauk</text><text x="0" y="100" fill="#000000" font-size="5px" font-weight="bold" font-family="'Helvetica Neue', Helvetica, Arial-Unicode, Arial, Sans-serif">from the Noun Project</text></svg>