<svg xmlns="http://www.w3.org/2000/svg" xmlns:xlink="http://www.w3.org/1999/xlink" version="1.1" x="0px" y="0px" viewBox="0 0 50 62.5" enable-background="new 0 0 50 50" xml:space="preserve"><g><path d="M20.4,48.8c6.7,1.3,12.5-3.8,12.5-10.3c0-3.4-1.7-6.5-4.3-8.4V7.2c0-3.4-2.7-6.2-6.2-6.2c-3.4,0-6.2,2.8-6.2,6.2v22.9   c-3.1,2.3-4.9,6.2-4,10.6C13,44.7,16.3,48,20.4,48.8z M17.5,32l0.9-0.7v-24c0-2.2,1.8-3.9,3.9-3.9c2.2,0,4,1.8,4,3.9v24l0.9,0.7   c2.1,1.5,3.3,4,3.3,6.6c0,2.2-0.9,4.3-2.4,5.8c-1.6,1.5-3.6,2.4-5.8,2.4c-4.1,0-7.3-2.9-8-6.5C13.8,37,15,33.8,17.5,32z"/><path d="M22.4,44.4c1.6,0,3.1-0.6,4.2-1.7c1.1-1.1,1.7-2.6,1.7-4.2c0-4-3.4-5.3-4.3-6.1V15.5h-3.3v16.9c-0.7,0.8-5.1,2.4-4.1,7.3   C17.1,42.3,19.4,44.4,22.4,44.4z"/><path d="M36.9,7.8h-5.7v2.3h5.7c0.6,0,1.1-0.5,1.1-1.1C38.1,8.3,37.6,7.8,36.9,7.8z"/><path d="M35.8,15c0-0.6-0.5-1.1-1.1-1.1h-3.4v2.3h3.4C35.3,16.1,35.8,15.6,35.8,15z"/><path d="M38.1,21c0-0.6-0.5-1.1-1.1-1.1h-5.7v2.3h5.7C37.6,22.2,38.1,21.6,38.1,21z"/></g><text x="0" y="65" fill="#000000" font-size="5px" font-weight="bold" font-family="'Helvetica Neue', Helvetica, Arial-Unicode, Arial, Sans-serif">Created by Vectors Market</text><text x="0" y="70" fill="#000000" font-size="5px" font-weight="bold" font-family="'Helvetica Neue', Helvetica, Arial-Unicode, Arial, Sans-serif">from the Noun Project</text></svg>