<svg xmlns="http://www.w3.org/2000/svg" xmlns:xlink="http://www.w3.org/1999/xlink" version="1.1" x="0px" y="0px" viewBox="0 0 100 125" style="enable-background:new 0 0 100 100;" xml:space="preserve"><g><g><g><g><g><path d="M93.6,37c-0.2,0-0.4-0.1-0.6-0.2C90.2,35,86.9,34,83.5,34c-3.4,0-6.7,1-9.5,2.8       c-0.5,0.3-1.3,0.2-1.6-0.3c-0.3-0.5-0.2-1.3,0.3-1.6c3.2-2.1,7-3.2,10.8-3.2c3.8,0,7.5,1.1,10.8,3.2c0.5,0.3,0.7,1.1,0.3,1.6       C94.4,36.8,94,37,93.6,37z"/></g><g><path d="M98.8,30.6c-0.2,0-0.4-0.1-0.6-0.2c-4.4-2.8-9.5-4.3-14.7-4.3c-5.2,0-10.3,1.5-14.7,4.3       c-0.5,0.3-1.3,0.2-1.6-0.3c-0.3-0.5-0.2-1.3,0.3-1.6c4.8-3.1,10.3-4.7,16-4.7s11.2,1.6,16,4.7c0.5,0.3,0.7,1.1,0.3,1.6       C99.6,30.4,99.2,30.6,98.8,30.6z"/></g><g><path d="M87.6,42.6c-0.2,0-0.4-0.1-0.6-0.2c-2.1-1.3-4.9-1.3-7,0c-0.5,0.3-1.3,0.2-1.6-0.3       c-0.3-0.5-0.2-1.3,0.3-1.6c2.8-1.8,6.7-1.8,9.5,0c0.5,0.3,0.7,1.1,0.3,1.6C88.4,42.4,88,42.6,87.6,42.6z"/></g></g></g></g><g><path d="M39.5,79.4C17.7,79.4,0,61.7,0,39.9S17.7,0.4,39.5,0.4C53.8,0.4,67,8.2,74,20.7c0.3,0.6,0.1,1.3-0.4,1.6    c-0.6,0.3-1.3,0.1-1.6-0.4C65.4,10,53,2.7,39.5,2.7C19,2.7,2.3,19.4,2.3,39.9c0,20.5,16.7,37.2,37.2,37.2c8.6,0,17-3,23.6-8.5    c0.5-0.4,1.2-0.3,1.6,0.2c0.4,0.5,0.3,1.2-0.2,1.6C57.6,76.2,48.7,79.4,39.5,79.4z"/></g><g><path d="M39.5,65.1c-0.3,0-0.5,0-0.8,0c-7.8-0.4-14.2-6.8-14.5-14.7c-0.2-6,3-11.5,8.3-14.3V18.6    c0-3.9,3.1-7,7-7s7,3.1,7,7v17.6c5.1,2.6,8.3,7.9,8.3,13.6c0,4.2-1.7,8.2-4.8,11.1C47.2,63.7,43.5,65.1,39.5,65.1z M39.5,13.9    c-2.6,0-4.7,2.1-4.7,4.7v18.4c0,0.5-0.3,0.9-0.7,1.1c-4.9,2.2-7.8,7.1-7.6,12.4c0.3,6.6,5.7,12.1,12.3,12.4c3.6,0.2,7-1.1,9.6-3.6    c2.6-2.5,4-5.8,4-9.4c0-5.1-3-9.7-7.6-11.8c-0.4-0.2-0.7-0.6-0.7-1.1V18.6C44.2,16,42.1,13.9,39.5,13.9z"/></g><g><path d="M39.5,52c-0.6,0-1.2-0.5-1.2-1.2v-28c0-0.6,0.5-1.2,1.2-1.2c0.6,0,1.2,0.5,1.2,1.2v28    C40.7,51.4,40.1,52,39.5,52z"/></g><g><path d="M39.5,58.3c-4.3,0-7.8-3.2-8.4-7.3h-5.8c-0.6,0-1.2-0.5-1.2-1.2c0-0.6,0.5-1.2,1.2-1.2h6.9    c0.6,0,1.2,0.5,1.2,1.2c0,3.4,2.7,6.1,6.1,6.1c3.4,0,6.1-2.7,6.1-6.1c0-0.6,0.5-1.2,1.2-1.2h6.9c0.6,0,1.2,0.5,1.2,1.2    c0,0.6-0.5,1.2-1.2,1.2h-5.8C47.3,55.1,43.8,58.3,39.5,58.3z"/></g><g><path d="M83.5,99.6c-8.8,0-15.9-7.1-15.9-15.9V62c0-8.8,7.1-15.9,15.9-15.9S99.4,53.2,99.4,62v21.7    C99.4,92.5,92.3,99.6,83.5,99.6z M83.5,48.4c-7.5,0-13.6,6.1-13.6,13.6v21.7c0,7.5,6.1,13.6,13.6,13.6c7.5,0,13.6-6.1,13.6-13.6    V62C97.1,54.5,91,48.4,83.5,48.4z"/></g><g><path d="M83.5,90.5c-3.9,0-7-3.1-7-7c0-3.9,3.1-7,7-7c3.9,0,7,3.1,7,7C90.5,87.4,87.4,90.5,83.5,90.5z     M83.5,78.8c-2.6,0-4.7,2.1-4.7,4.7c0,2.6,2.1,4.7,4.7,4.7c2.6,0,4.7-2.1,4.7-4.7C88.2,80.9,86.1,78.8,83.5,78.8z"/></g></g><text x="0" y="115" fill="#000000" font-size="5px" font-weight="bold" font-family="'Helvetica Neue', Helvetica, Arial-Unicode, Arial, Sans-serif">Created by Andrei Yushchenko</text><text x="0" y="120" fill="#000000" font-size="5px" font-weight="bold" font-family="'Helvetica Neue', Helvetica, Arial-Unicode, Arial, Sans-serif">from the Noun Project</text></svg>