<svg xmlns="http://www.w3.org/2000/svg" xmlns:xlink="http://www.w3.org/1999/xlink" version="1.1" x="0px" y="0px" viewBox="0 0 65 81.25" enable-background="new 0 0 65 65" xml:space="preserve"><path d="M54.813,35.22h-4.584V18.325c0-0.007,0.002-0.013,0.002-0.02c0-8.903-8.333-16.146-18.577-16.146c0,0,0,0,0,0  c0,0-0.001,0-0.001,0c-10.23,0-18.647,6.469-19.545,14.692c-6.569,0.422-11.531,3.761-11.531,7.95v7.534c0,0.829,0.671,1.5,1.5,1.5  H5.52v21.005c0,0.828,0.671,1.5,1.5,1.5s1.5-0.672,1.5-1.5V33.837h9.995v21.005c0,0.828,0.671,1.5,1.5,1.5s1.5-0.672,1.5-1.5V33.837  h3.433c0.003,0,0.006,0.001,0.01,0.001c0.829,0,1.5-0.671,1.5-1.5v-7.535c0-2.553-1.846-4.788-4.771-6.242  c-0.008-0.004-0.015-0.011-0.023-0.015c-0.019-0.01-0.039-0.014-0.058-0.022c-1.813-0.887-4.032-1.473-6.484-1.653  c0.909-6.575,7.973-11.71,16.531-11.71c0,0,0,0,0.001,0c0,0,0,0,0,0c8.584,0,15.568,5.891,15.576,13.133  c0,0.004-0.001,0.008-0.001,0.012V35.22h-4.584c-5.299,0-9.609,4.312-9.609,9.61v7.436c0,5.3,4.311,9.611,9.609,9.611h12.168  c5.3,0,9.611-4.312,9.611-9.611V44.83C64.424,39.531,60.112,35.22,54.813,35.22z M8.096,30.837l5.586-11.027  c1.984,0.017,3.756,0.337,5.232,0.845l-5.158,10.182H8.096z M10.164,20.117l-5.431,10.72H3.576v-6.034  C3.576,22.923,6.162,20.878,10.164,20.117z M23.458,30.837h-6.339l4.479-8.84c1.184,0.852,1.861,1.85,1.861,2.806V30.837z   M42.645,38.22h12.168c3.646,0,6.611,2.966,6.611,6.61v2.218h-5.768c-0.018,0-0.035,0.005-0.053,0.005  c-0.048,0.002-0.094,0.009-0.141,0.015c-0.053,0.007-0.104,0.014-0.155,0.025c-0.041,0.01-0.08,0.024-0.12,0.037  c-0.052,0.018-0.104,0.034-0.153,0.057c-0.04,0.019-0.076,0.041-0.114,0.063c-0.045,0.025-0.09,0.05-0.132,0.08  c-0.039,0.027-0.074,0.059-0.11,0.09c-0.037,0.032-0.074,0.063-0.107,0.1c-0.032,0.033-0.061,0.07-0.089,0.107  c-0.033,0.042-0.065,0.083-0.094,0.129c-0.009,0.014-0.02,0.024-0.028,0.039l-1.893,3.257l-4.629-8.197  c-0.001-0.002-0.002-0.003-0.003-0.005c-0.031-0.054-0.072-0.104-0.11-0.155c-0.022-0.03-0.042-0.064-0.067-0.092  c-0.002-0.003-0.003-0.006-0.005-0.008c-0.035-0.039-0.076-0.07-0.114-0.105c-0.033-0.029-0.063-0.063-0.098-0.089  c-0.059-0.045-0.122-0.081-0.186-0.116c-0.021-0.011-0.038-0.025-0.06-0.036c-0.071-0.035-0.146-0.061-0.221-0.084  c-0.017-0.006-0.031-0.013-0.048-0.018c-0.073-0.021-0.147-0.031-0.224-0.04c-0.021-0.002-0.041-0.008-0.062-0.01  c-0.07-0.005-0.14-0.001-0.209,0.004c-0.027,0.002-0.055,0-0.082,0.003c-0.068,0.008-0.136,0.025-0.202,0.044  c-0.028,0.007-0.057,0.01-0.084,0.02c-0.072,0.023-0.141,0.057-0.21,0.092c-0.02,0.01-0.041,0.016-0.061,0.026  c-0.001,0.001-0.002,0.002-0.004,0.003c-0.05,0.028-0.095,0.065-0.143,0.101c-0.035,0.026-0.074,0.049-0.107,0.077  c-0.002,0.002-0.004,0.003-0.006,0.005l-5.15,4.578h-4.349V44.83C36.035,41.186,39,38.22,42.645,38.22z M54.813,58.877H42.645  c-3.645,0-6.609-2.966-6.609-6.611v-2.218h4.92l0,0c0.001,0,0.001,0,0.001,0h0.001c0.17-0.001,0.33-0.035,0.482-0.087  c0.02-0.007,0.038-0.011,0.058-0.019c0.154-0.06,0.294-0.146,0.419-0.251c0.011-0.01,0.025-0.013,0.036-0.022l4.187-3.722  l5.002,8.858c0.011,0.019,0.026,0.031,0.037,0.049c0.05,0.08,0.107,0.156,0.172,0.227c0.022,0.023,0.042,0.048,0.064,0.069  c0.084,0.08,0.175,0.154,0.279,0.215c0.001,0.001,0.003,0.001,0.005,0.002c0.09,0.052,0.188,0.087,0.286,0.119  c0.151,0.049,0.307,0.082,0.462,0.082h0.001h0.001c0.126,0,0.254-0.017,0.379-0.049c0.064-0.018,0.123-0.05,0.185-0.075  c0.058-0.023,0.117-0.038,0.173-0.069c0.106-0.06,0.198-0.134,0.284-0.213c0.023-0.022,0.044-0.048,0.066-0.071  c0.065-0.069,0.122-0.143,0.173-0.222c0.011-0.017,0.026-0.029,0.036-0.047l2.775-4.774h4.904v2.218  C61.424,55.911,58.458,58.877,54.813,58.877z"/><text x="0" y="80" fill="#000000" font-size="5px" font-weight="bold" font-family="'Helvetica Neue', Helvetica, Arial-Unicode, Arial, Sans-serif">Created by Adnen Kadri</text><text x="0" y="85" fill="#000000" font-size="5px" font-weight="bold" font-family="'Helvetica Neue', Helvetica, Arial-Unicode, Arial, Sans-serif">from the Noun Project</text></svg>