<svg xmlns="http://www.w3.org/2000/svg" xmlns:xlink="http://www.w3.org/1999/xlink" version="1.1" x="0px" y="0px" viewBox="0 0 100 125" style="enable-background:new 0 0 100 100;" xml:space="preserve"><style type="text/css">
	.st0{fill:none;stroke:#000000;stroke-width:4;stroke-miterlimit:10;}
	.st1{fill:none;stroke:#000000;stroke-width:4;stroke-linecap:round;stroke-linejoin:round;stroke-miterlimit:10;}
</style><path class="st0" d="M85.9,21.9"/><path class="st0" d="M89.8,48.5"/><path class="st0" d="M43,27.1"/><path class="st1" d="M68.2,79.8c1.2-0.2-11.4,2.7-22.3-1.8C41,75.9,39,26.4,39,26.4l18.9-4.5l18.6-4c0,0,14.4,47.5,10.5,51.5  c-8.5,8.7-17,9.9-19.1,10.2"/><path class="st1" d="M78.2,23.8L87,22c0,0,9.4,8.2,7.8,18.4s-9.5,10.8-9.5,10.8"/><polyline class="st1" points="43,72.9 12,39.6 16.8,32.2 38.8,41.6 "/><polyline class="st1" points="12,39.6 5.8,39.1 14.6,25.5 16.8,32.2 "/><path class="st1" d="M10.3,60.4c0,0,11.8,21.6,0,21.6S10.3,60.4,10.3,60.4z"/><line class="st1" x1="71.7" y1="27.1" x2="75.2" y2="44.6"/><text x="0" y="115" fill="#000000" font-size="5px" font-weight="bold" font-family="'Helvetica Neue', Helvetica, Arial-Unicode, Arial, Sans-serif">Created by Daria Moskvina</text><text x="0" y="120" fill="#000000" font-size="5px" font-weight="bold" font-family="'Helvetica Neue', Helvetica, Arial-Unicode, Arial, Sans-serif">from the Noun Project</text></svg>