<svg xmlns="http://www.w3.org/2000/svg" xmlns:xlink="http://www.w3.org/1999/xlink" version="1.1" x="0px" y="0px" viewBox="0 0 100 125" style="enable-background:new 0 0 100 100;" xml:space="preserve"><g><path d="M79.53,5.42h-59.3c-6.6,0-12,5.4-12,12v66.54c0,6.6,5.4,12,12,12h59.3c6.6,0,12-5.4,12-12V17.42   C91.53,10.82,86.13,5.42,79.53,5.42z M89.53,83.97c0,5.51-4.49,10-10,10h-59.3c-5.51,0-10-4.49-10-10V17.42c0-5.51,4.49-10,10-10   h59.3c5.51,0,10,4.49,10,10V83.97z"/><path d="M79.07,8.86H20.69c-5.11,0-9.3,4.18-9.3,9.3v65.07c0,5.11,4.18,9.3,9.3,9.3h58.38c5.11,0,9.3-4.18,9.3-9.3V18.16   C88.37,13.04,84.18,8.86,79.07,8.86z M86.37,83.23c0,4.02-3.27,7.3-7.3,7.3H20.69c-4.02,0-7.3-3.27-7.3-7.3V18.16   c0-4.02,3.27-7.3,7.3-7.3h58.38c4.02,0,7.3,3.27,7.3,7.3V83.23z"/><path d="M47.88,36.91c0-5.52-4.25-10-9.5-10s-9.5,4.48-9.5,10c0,5.52,4.25,10,9.5,10S47.88,42.43,47.88,36.91z M29.88,36.91   c0-4.96,3.81-9,8.5-9c4.69,0,8.5,4.04,8.5,9c0,4.96-3.81,9-8.5,9C33.69,45.91,29.88,41.87,29.88,36.91z"/><path d="M41.2,36.66c0-1.93-1.64-3.5-3.66-3.5c-2.02,0-3.66,1.57-3.66,3.5s1.64,3.5,3.66,3.5C39.56,40.16,41.2,38.59,41.2,36.66z    M37.54,39.16c-1.47,0-2.66-1.12-2.66-2.5s1.19-2.5,2.66-2.5c1.47,0,2.66,1.12,2.66,2.5S39,39.16,37.54,39.16z"/><path d="M27.37,53.75c0-3.86-1.84-7-4.12-7s-4.12,3.13-4.12,7c0,3.86,1.84,7,4.12,7S27.37,57.61,27.37,53.75z M25.58,57.63   c-2.16-0.07-3.34-0.19-3.98-0.29c0.61-0.2,1.49-0.41,2.16-0.58c1.04-0.26,1.79-0.45,2.34-0.64C25.96,56.68,25.79,57.19,25.58,57.63   z M26.37,53.75c0,0.23-0.01,0.46-0.02,0.68c-0.63-0.16-1.65-0.23-3.22-0.33c-0.56-0.03-1.28-0.08-1.87-0.13   c1.06-0.36,2.02-0.66,2.83-0.91c1.09-0.34,1.77-0.56,2.19-0.74C26.33,52.77,26.37,53.25,26.37,53.75z M25.29,49.31   c0.27,0.46,0.51,1.01,0.69,1.64c-0.45-0.07-1.09-0.12-1.99-0.18c-0.81-0.06-2.02-0.14-2.74-0.27   C21.81,50.27,22.95,49.88,25.29,49.31z M23.25,47.75c0.46,0,0.95,0.25,1.39,0.69c-1.7,0.43-2.81,0.77-3.53,1.05   C21.7,48.39,22.5,47.75,23.25,47.75z M20.42,51.31c0.6,0.23,1.69,0.33,3.51,0.46c0.24,0.02,0.5,0.03,0.75,0.05   c-0.29,0.09-0.6,0.19-0.9,0.29c-0.98,0.31-2.19,0.69-3.54,1.15c-0.03,0.01-0.06,0.02-0.09,0.03   C20.18,52.58,20.27,51.91,20.42,51.31z M20.19,54.83c0.58,0.12,1.48,0.18,2.87,0.27c0.73,0.04,1.7,0.1,2.4,0.18   c-0.58,0.18-1.35,0.37-1.94,0.51c-1.47,0.36-2.42,0.61-2.96,0.9C20.38,56.14,20.26,55.51,20.19,54.83z M23.25,59.74   c-0.68,0-1.4-0.53-1.97-1.45c0.74,0.14,1.9,0.25,3.73,0.32C24.47,59.33,23.85,59.74,23.25,59.74z"/><path d="M76.81,22.16c1.38,0,2.5-1.12,2.5-2.5s-1.12-2.5-2.5-2.5c-1.38,0-2.5,1.12-2.5,2.5S75.43,22.16,76.81,22.16z M76.81,18.16   c0.83,0,1.5,0.67,1.5,1.5s-0.67,1.5-1.5,1.5c-0.83,0-1.5-0.67-1.5-1.5S75.98,18.16,76.81,18.16z"/><path d="M51.38,21.66c4.97,0,9-2.01,9-4.5s-4.03-4.5-9-4.5c-4.97,0-9,2.01-9,4.5S46.41,21.66,51.38,21.66z M51.38,13.66   c4.71,0,8,1.84,8,3.5s-3.29,3.5-8,3.5c-4.71,0-8-1.84-8-3.5S46.66,13.66,51.38,13.66z"/><path d="M46.88,16.66c0.55,0,1-0.45,1-1s-0.45-1-1-1c-0.55,0-1,0.45-1,1S46.33,16.66,46.88,16.66z M46.88,15.41   c0.14,0,0.25,0.11,0.25,0.25c0,0.14-0.11,0.25-0.25,0.25c-0.14,0-0.25-0.11-0.25-0.25C46.63,15.52,46.74,15.41,46.88,15.41z"/><path d="M49.88,16.66c0.55,0,1-0.45,1-1s-0.45-1-1-1c-0.55,0-1,0.45-1,1S49.33,16.66,49.88,16.66z M49.88,15.41   c0.14,0,0.25,0.11,0.25,0.25c0,0.14-0.11,0.25-0.25,0.25c-0.14,0-0.25-0.11-0.25-0.25C49.63,15.52,49.74,15.41,49.88,15.41z"/><path d="M46.88,19.66c0.55,0,1-0.45,1-1s-0.45-1-1-1c-0.55,0-1,0.45-1,1S46.33,19.66,46.88,19.66z M46.88,18.41   c0.14,0,0.25,0.11,0.25,0.25c0,0.14-0.11,0.25-0.25,0.25c-0.14,0-0.25-0.11-0.25-0.25C46.63,18.52,46.74,18.41,46.88,18.41z"/><path d="M49.88,19.66c0.55,0,1-0.45,1-1s-0.45-1-1-1c-0.55,0-1,0.45-1,1S49.33,19.66,49.88,19.66z M49.88,18.41   c0.14,0,0.25,0.11,0.25,0.25c0,0.14-0.11,0.25-0.25,0.25c-0.14,0-0.25-0.11-0.25-0.25C49.63,18.52,49.74,18.41,49.88,18.41z"/><path d="M52.88,19.66c0.55,0,1-0.45,1-1s-0.45-1-1-1c-0.55,0-1,0.45-1,1S52.33,19.66,52.88,19.66z M52.88,18.41   c0.14,0,0.25,0.11,0.25,0.25c0,0.14-0.11,0.25-0.25,0.25c-0.14,0-0.25-0.11-0.25-0.25C52.63,18.52,52.74,18.41,52.88,18.41z"/><path d="M52.88,16.66c0.55,0,1-0.45,1-1s-0.45-1-1-1c-0.55,0-1,0.45-1,1S52.33,16.66,52.88,16.66z M52.88,15.41   c0.14,0,0.25,0.11,0.25,0.25c0,0.14-0.11,0.25-0.25,0.25c-0.14,0-0.25-0.11-0.25-0.25C52.63,15.52,52.74,15.41,52.88,15.41z"/><path d="M55.88,16.66c0.55,0,1-0.45,1-1s-0.45-1-1-1c-0.55,0-1,0.45-1,1S55.33,16.66,55.88,16.66z M55.88,15.41   c0.14,0,0.25,0.11,0.25,0.25c0,0.14-0.11,0.25-0.25,0.25c-0.14,0-0.25-0.11-0.25-0.25C55.63,15.52,55.74,15.41,55.88,15.41z"/><path d="M55.88,19.66c0.55,0,1-0.45,1-1s-0.45-1-1-1c-0.55,0-1,0.45-1,1S55.33,19.66,55.88,19.66z M55.88,18.41   c0.14,0,0.25,0.11,0.25,0.25c0,0.14-0.11,0.25-0.25,0.25c-0.14,0-0.25-0.11-0.25-0.25C55.63,18.52,55.74,18.41,55.88,18.41z"/><path d="M19.24,34.9c0.89-0.05,1.3-0.84,2.13-2.41c0.33-0.63,0.74-1.41,1.29-2.34c0.71-1.22,1.45-2.34,1.89-2.31   c0.14,0.01,0.29,0.1,0.36,0.21c0.29,0.45-0.59,1.78-1.61,3.33l-0.27,0.41c-3.48,5.3-3.88,6.55-3.26,7.41   c0.22,0.3,0.57,0.51,0.94,0.55c1.38,0.16,2.48-1.94,3.4-3.92c0.42-0.91,0.73-1.75,0.98-2.43c0.26-0.71,0.66-1.79,0.87-1.8   c0,0,0.06,0.02,0.09,0.04c0.46,0.36-0.67,3.08-1.34,4.7c-1.26,3.03-2.45,5.88-1.18,7.05c0.34,0.31,0.79,0.44,1.23,0.44   c0.3,0,0.59-0.06,0.82-0.17c1.01-0.46,1.14-1.64,1.34-3.44c0.05-0.46,0.11-0.96,0.18-1.5c0-0.03,0.38-2.68,1.09-4.93   c0.45-1.43,1.21-3.82,3.02-5.47c1.77-1.61,4-2,5.78-2.31c1.66-0.29,2.98-0.52,3.21-1.69c0.16-0.85-0.43-1.71-1.05-2.16   c-1.49-1.08-3.75-0.07-4.84,0.42c-1.52,0.68-2.65,1.55-3.55,2.25c-0.86,0.66-1.54,1.19-1.93,1.02c-0.09-0.04-0.22-0.13-0.28-0.25   c-0.16-0.3,0.09-0.92,0.78-1.94c0.64-0.95,1.23-1.62,1.7-2.16c0.73-0.84,1.22-1.4,1-2.12c-0.21-0.7-0.95-0.99-1.26-1.08   c-1.43-0.43-3.15,0.56-8.61,7.19c-4.75,5.77-5.26,7.27-4.6,8.45C17.87,34.4,18.5,34.94,19.24,34.9z M22.95,26.07   c5.31-6.46,6.8-7.1,7.55-6.87c0.26,0.08,0.54,0.24,0.59,0.41c0.06,0.2-0.34,0.65-0.8,1.18c-0.46,0.53-1.1,1.26-1.77,2.26   c-0.8,1.19-1.25,2.15-0.84,2.96c0.22,0.43,0.61,0.64,0.77,0.71c0.94,0.41,1.83-0.27,2.95-1.14c0.86-0.66,1.93-1.49,3.34-2.12   c0.85-0.38,2.83-1.26,3.85-0.52c0.31,0.23,0.73,0.75,0.65,1.17c-0.1,0.5-1.16,0.68-2.4,0.9c-1.81,0.32-4.3,0.75-6.28,2.56   c-2.01,1.83-2.82,4.38-3.3,5.91c-0.74,2.33-1.11,4.98-1.13,5.09c-0.08,0.55-0.13,1.06-0.18,1.53c-0.15,1.4-0.27,2.42-0.76,2.64   c-0.27,0.12-0.73,0.11-0.96-0.1c-0.75-0.69,0.51-3.71,1.43-5.92c1.17-2.82,2.1-5.04,1.03-5.87c-0.12-0.09-0.37-0.25-0.7-0.25   c-0.01,0-0.02,0-0.04,0c-0.88,0.03-1.24,0.99-1.77,2.45c-0.26,0.7-0.55,1.48-0.95,2.35c-1.06,2.28-1.88,3.4-2.38,3.35   c-0.08-0.01-0.19-0.06-0.25-0.14c-0.39-0.53,1.55-3.63,3.28-6.27l0.27-0.41c1.41-2.14,2.26-3.43,1.61-4.42   c-0.24-0.37-0.68-0.63-1.13-0.66c-1-0.08-1.69,0.85-2.83,2.81c-0.55,0.95-0.97,1.74-1.31,2.38c-0.59,1.12-0.98,1.86-1.3,1.88   c-0.24,0.01-0.57-0.22-0.73-0.51C18.08,32.73,18.71,31.23,22.95,26.07z"/><path d="M31.38,80.95c-3.63-1.63-10.11-7.61-11.55-9.32c-0.2-0.24-0.8-0.93-1.64-0.92c-0.82,0.03-1.56,0.75-1.72,1.41   c-0.31,1.18,0.98,2.05,3.1,3.48c1.03,0.69,2.31,1.56,3.64,2.63c1.88,1.51,3.28,2.95,4.4,4.11c1.46,1.5,2.5,2.58,3.54,2.58   c0.19,0,0.39-0.04,0.59-0.12c0.77-0.31,1.52-1.28,1.36-2.19C32.91,81.64,31.87,81.17,31.38,80.95z M31.36,83.87   c-0.63,0.26-1.64-0.79-3.04-2.23c-1.14-1.18-2.56-2.64-4.49-4.19c-1.36-1.1-2.67-1.97-3.71-2.68c-1.45-0.98-2.82-1.9-2.69-2.4   c0.07-0.28,0.47-0.64,0.8-0.66c0.35-0.06,0.72,0.42,0.85,0.58c1.47,1.75,8.14,7.89,11.94,9.6c0.28,0.12,1.01,0.45,1.09,0.9   C32.16,83.13,31.77,83.7,31.36,83.87z"/><path d="M24.87,75.55c0.42,0.31,0.81,0.6,1.15,0.86h0c0.67,0.51,1.31,1.06,1.92,1.58c1.71,1.45,3.2,2.72,4.51,2.72   c0.05,0,0.09,0,0.14,0c0.31-0.02,1.25-0.08,1.76-0.8c0.1-0.14,0.33-0.53,0.3-1.03c-0.04-0.7-0.56-1.16-0.74-1.31   c-0.6-0.52-1.67-1-2.91-1.55c-1.2-0.54-2.56-1.14-3.47-1.82c-1.08-0.8-2.11-2.13-3.02-3.3c-0.93-1.19-1.66-2.13-2.33-2.41   c-0.55-0.23-1.02-0.11-1.07-0.1c-0.7,0.19-1.02,0.84-1.08,0.97c-0.32,0.72-0.04,1.43,0.05,1.66C20.61,72.4,22.87,74.07,24.87,75.55   z M20.95,69.74c0,0,0.15-0.33,0.41-0.4c0.01,0,0.2-0.04,0.44,0.05c0.43,0.18,1.19,1.16,1.93,2.1c0.95,1.22,2.02,2.6,3.21,3.48   c1,0.74,2.41,1.37,3.65,1.93c1.12,0.5,2.17,0.97,2.66,1.4c0.1,0.09,0.38,0.33,0.4,0.62c0.01,0.2-0.1,0.36-0.12,0.39   c-0.24,0.33-0.8,0.37-1.01,0.38c-0.93,0.09-2.39-1.17-3.93-2.48c-0.62-0.53-1.28-1.08-1.96-1.61c-0.34-0.27-0.74-0.56-1.17-0.88   c-1.69-1.25-4.02-2.97-4.44-4.09C20.96,70.49,20.8,70.09,20.95,69.74z"/><path d="M34.29,70.48c-0.44-0.42-1.06-0.53-1.65-0.64c-0.53-0.1-1.03-0.19-1.38-0.48c-0.32-0.26-0.49-0.67-0.68-1.11   c-0.23-0.53-0.46-1.08-0.97-1.4c-0.11-0.07-0.46-0.3-0.92-0.23c-0.52,0.06-0.82,0.43-0.9,0.55c-0.25,0.36-0.23,0.74-0.23,0.86   c0.05,1.38,1.92,2.93,2.13,3.1c1.79,1.45,3.06,1.66,3.64,1.66c0.19,0,0.31-0.02,0.35-0.03c0.28-0.06,0.66-0.25,0.83-0.51l0,0   c0.14-0.21,0.29-0.53,0.24-0.94C34.68,70.85,34.38,70.57,34.29,70.48z M33.69,71.66c-0.03,0.03-0.11,0.09-0.24,0.12   c-0.01,0-1.15,0.19-3.14-1.43c-0.67-0.54-1.73-1.66-1.76-2.36c0-0.06-0.01-0.17,0.05-0.25c0,0,0.09-0.12,0.21-0.13   c0.01,0,0.02,0,0.03,0c0.1,0,0.19,0.06,0.24,0.09c0.25,0.16,0.41,0.52,0.58,0.94c0.21,0.5,0.46,1.07,0.96,1.49   c0.55,0.46,1.24,0.58,1.84,0.69c0.47,0.09,0.91,0.17,1.14,0.38c0.05,0.05,0.14,0.13,0.15,0.23C33.76,71.52,33.72,71.61,33.69,71.66   z"/><path d="M35.53,75.95L35.53,75.95c0.24-0.36,0.31-0.78,0.21-1.18c-0.13-0.54-0.53-0.9-0.68-1.04c-0.63-0.57-1.63-0.77-2.69-0.99   c-1.13-0.23-2.29-0.47-3.09-1.13c-0.71-0.58-1.1-1.48-1.48-2.36c-0.42-0.96-0.81-1.87-1.61-2.39c-0.15-0.1-0.58-0.41-1.18-0.4   c-0.59,0.01-1.1,0.34-1.31,0.85c-0.03,0.07-0.15,0.42-0.05,0.88c0.6,2.71,3.88,5.36,4.02,5.47c3.35,2.67,5.95,2.85,6.6,2.85   c0.1,0,0.15,0,0.15,0C34.88,76.47,35.34,76.25,35.53,75.95z M34.71,75.38c-0.04,0.03-0.16,0.12-0.39,0.15   c-0.02,0-2.55,0.14-6.02-2.63v0c-0.03-0.03-3.15-2.53-3.67-4.9c-0.04-0.17,0-0.3,0-0.3c0.05-0.13,0.21-0.22,0.39-0.23   c0.26,0.01,0.52,0.17,0.61,0.23c0.55,0.36,0.89,1.14,1.24,1.96c0.41,0.93,0.87,1.99,1.76,2.73c0.99,0.82,2.34,1.09,3.53,1.33   c0.92,0.19,1.8,0.37,2.22,0.75c0.1,0.09,0.32,0.29,0.38,0.53C34.8,75.13,34.78,75.26,34.71,75.38z"/><path d="M20.69,64.76c-0.57,0.73-0.39,1.83,0.41,2.44c0.35,0.27,0.76,0.4,1.16,0.4c0.51,0,0.99-0.21,1.31-0.62   c0.57-0.73,0.39-1.83-0.41-2.44C22.37,63.93,21.26,64.03,20.69,64.76z M22.77,66.37c-0.23,0.3-0.71,0.32-1.06,0.04   c-0.36-0.28-0.46-0.74-0.23-1.04c0.12-0.16,0.31-0.24,0.52-0.24c0.18,0,0.38,0.06,0.55,0.19C22.9,65.61,23,66.07,22.77,66.37z"/><path d="M32.63,69.56c0.32-0.04,0.61-0.2,0.8-0.46c0.41-0.53,0.31-1.29-0.22-1.7c-0.26-0.2-0.57-0.29-0.89-0.24   c-0.32,0.04-0.61,0.2-0.8,0.46c-0.41,0.53-0.31,1.29,0.22,1.7c0.21,0.17,0.47,0.25,0.74,0.25C32.53,69.57,32.58,69.57,32.63,69.56z    M32.31,68.23c0.04-0.05,0.11-0.07,0.18-0.07c0.04,0,0.09,0.01,0.12,0.04c0.09,0.07,0.11,0.2,0.04,0.29   c-0.06,0.08-0.22,0.1-0.29,0.04C32.26,68.45,32.24,68.32,32.31,68.23z"/><path d="M18.1,83.83c-0.39,0.5-0.27,1.25,0.26,1.67c0.23,0.18,0.5,0.27,0.78,0.27c0.05,0,0.1,0,0.15-0.01   c0.3-0.04,0.57-0.19,0.75-0.42c0.18-0.24,0.26-0.53,0.22-0.83c-0.04-0.32-0.22-0.63-0.48-0.83C19.24,83.25,18.49,83.32,18.1,83.83z    M19.25,84.72l-0.09,0.04c-0.06,0.01-0.13-0.01-0.19-0.06c-0.11-0.08-0.13-0.21-0.08-0.26c0.02-0.03,0.06-0.05,0.11-0.05   c0.05,0,0.11,0.02,0.17,0.06c0.06,0.04,0.1,0.11,0.1,0.17C19.27,84.65,19.27,84.69,19.25,84.72z"/><path d="M19.77,83.03c0.44,0,0.88-0.2,1.17-0.57v0c0.24-0.31,0.35-0.7,0.3-1.09c-0.05-0.39-0.25-0.74-0.56-0.98   c-0.31-0.24-0.7-0.35-1.09-0.3c-0.39,0.05-0.74,0.25-0.98,0.56c-0.5,0.65-0.38,1.58,0.26,2.08C19.14,82.93,19.45,83.03,19.77,83.03   z M19.39,81.25c0.08-0.1,0.19-0.17,0.32-0.18c0.02,0,0.04,0,0.06,0c0.11,0,0.21,0.04,0.29,0.1c0.1,0.08,0.17,0.19,0.18,0.32   c0.02,0.13-0.02,0.25-0.1,0.35c-0.16,0.21-0.47,0.25-0.68,0.09S19.23,81.46,19.39,81.25z"/><path d="M35.56,80.84c-0.66-0.51-1.63-0.39-2.14,0.27c-0.52,0.67-0.39,1.63,0.27,2.14c0.28,0.21,0.61,0.32,0.93,0.32   c0.46,0,0.91-0.2,1.21-0.59v0C36.35,82.31,36.23,81.35,35.56,80.84z M35.05,82.37c-0.18,0.23-0.51,0.27-0.74,0.09   c-0.23-0.18-0.27-0.51-0.09-0.74c0.1-0.13,0.26-0.21,0.42-0.21c0.11,0,0.23,0.04,0.32,0.11C35.18,81.8,35.22,82.14,35.05,82.37z"/><path d="M23.3,78.78c-0.13-0.11-3.23-2.67-5.58-3.55c-0.6-0.23-1.15-0.25-1.64-0.07c-0.43,0.16-0.73,0.41-0.91,0.75   c-0.4,0.77,0.07,1.59,0.09,1.62c0.4,0.7,1.14,0.81,1.92,0.92c0.31,0.05,0.66,0.1,1.02,0.19c1.48,0.38,2.48,1.27,3.44,2.14   c0.8,0.72,1.63,1.47,2.29,2.72l0.12,0.23c0.33,0.65,0.82,1.63,1.76,2.34c0.26,0.2,0.65,0.44,1.13,0.44c0.08,0,0.16-0.01,0.24-0.02   c0.51-0.09,0.96-0.46,1.15-0.94c0.11-0.28,0.18-0.76-0.13-1.42C27.2,82.03,23.45,78.91,23.3,78.78z M27.4,85.19   c-0.06,0.15-0.23,0.29-0.39,0.31c-0.16,0.03-0.34-0.04-0.59-0.24c-0.75-0.56-1.16-1.39-1.46-1.99l-0.12-0.25   c-0.74-1.42-1.68-2.26-2.51-3.01c-1-0.9-2.14-1.92-3.86-2.36c-0.4-0.1-0.78-0.16-1.12-0.21c-0.68-0.1-1.05-0.17-1.2-0.43   c0,0-0.21-0.39-0.07-0.66c0.09-0.17,0.29-0.24,0.37-0.27c0.11-0.04,0.22-0.06,0.34-0.06c0.18,0,0.38,0.04,0.6,0.12h0   c2.19,0.82,5.26,3.36,5.29,3.39c0.04,0.03,3.73,3.11,4.64,5.02C27.42,84.82,27.45,85.05,27.4,85.19z"/><path d="M23.06,82.7c-0.36-0.28-0.78-0.42-1.21-0.42c-0.46,0.01-0.86,0.21-1.12,0.54c-0.26,0.33-0.35,0.78-0.24,1.22   c0.1,0.41,0.35,0.79,0.71,1.07c0.36,0.28,0.78,0.41,1.17,0.41c0.46,0,0.89-0.18,1.16-0.54h0c0.26-0.33,0.35-0.78,0.24-1.22   C23.67,83.36,23.42,82.98,23.06,82.7z M22.74,84.38c-0.18,0.23-0.6,0.2-0.93-0.05c-0.18-0.14-0.3-0.32-0.34-0.51   c-0.02-0.09-0.04-0.25,0.06-0.38c0.1-0.13,0.26-0.15,0.35-0.15c0.01,0,0.01,0,0.02,0c0.19,0,0.39,0.07,0.56,0.21   c0.18,0.14,0.3,0.32,0.35,0.51C22.82,84.09,22.84,84.25,22.74,84.38z"/><path d="M81.05,73.43c-2.09,0-4.97,1.46-7.46,3.97c-3.5,3.53-4.91,7.81-3.14,9.56c0.51,0.5,1.23,0.74,2.07,0.74   c2.09,0,4.97-1.46,7.46-3.97c3.5-3.53,4.91-7.81,3.14-9.56C82.61,73.67,81.89,73.43,81.05,73.43z M82.57,77.97   c-0.55,1.66-1.72,3.46-3.3,5.06c-2.21,2.23-4.86,3.67-6.75,3.67c-0.6,0-1.07-0.15-1.37-0.45c-1.18-1.17-0.17-4.8,3.15-8.15   c2.21-2.23,4.86-3.67,6.75-3.67c0.6,0,1.06,0.15,1.37,0.45C82.98,75.44,83.04,76.57,82.57,77.97z"/><path d="M72.55,81.71c-0.26,0-0.51,0.1-0.71,0.3c-0.39,0.39-0.39,1.03,0.01,1.41c0.2,0.19,0.45,0.29,0.7,0.29   c0.26,0,0.51-0.1,0.71-0.3c0.39-0.39,0.39-1.03-0.01-1.41C73.06,81.8,72.8,81.71,72.55,81.71z M72.73,82.88   c-0.06,0.06-0.14,0.07-0.18,0.07c-0.05,0-0.12-0.01-0.18-0.07c-0.06-0.06-0.07-0.14-0.07-0.18c0-0.04,0.01-0.11,0.07-0.18   c0.06-0.06,0.14-0.07,0.18-0.07c0.05,0,0.12,0.01,0.18,0.07C72.82,82.62,72.82,82.78,72.73,82.88z"/><path d="M74.66,81.57c0.26,0,0.51-0.1,0.71-0.3c0.39-0.39,0.39-1.03-0.01-1.41c-0.2-0.19-0.45-0.29-0.7-0.29   c-0.26,0-0.51,0.1-0.71,0.3c-0.39,0.39-0.39,1.03,0.01,1.41C74.15,81.48,74.41,81.57,74.66,81.57z M74.48,80.4   c0.06-0.06,0.14-0.07,0.18-0.07c0.05,0,0.12,0.01,0.18,0.07c0.06,0.06,0.07,0.14,0.07,0.18c0,0.04-0.01,0.11-0.07,0.18   c-0.06,0.06-0.14,0.07-0.18,0.07c-0.05,0-0.12-0.01-0.18-0.07C74.39,80.66,74.39,80.5,74.48,80.4z"/><path d="M74.68,83.82c-0.26,0-0.51,0.1-0.71,0.3c-0.39,0.39-0.39,1.03,0.01,1.41c0.2,0.19,0.45,0.29,0.7,0.29   c0.26,0,0.51-0.1,0.71-0.3c0.39-0.39,0.39-1.03-0.01-1.41C75.19,83.91,74.93,83.82,74.68,83.82z M74.86,84.99   c-0.06,0.06-0.14,0.07-0.18,0.07c-0.05,0-0.12-0.01-0.18-0.07c-0.06-0.06-0.07-0.14-0.07-0.18c0-0.04,0.01-0.11,0.07-0.18   c0.06-0.06,0.14-0.07,0.18-0.07c0.05,0,0.12,0.01,0.18,0.07c0.06,0.06,0.07,0.14,0.07,0.18C74.93,84.85,74.92,84.93,74.86,84.99z"/><path d="M76.79,81.69c-0.26,0-0.51,0.1-0.71,0.3c-0.39,0.39-0.39,1.03,0.01,1.41c0.2,0.19,0.45,0.29,0.7,0.29   c0.26,0,0.51-0.1,0.71-0.3c0.39-0.39,0.39-1.03-0.01-1.41C77.3,81.78,77.05,81.69,76.79,81.69z M76.97,82.86   c-0.06,0.06-0.14,0.07-0.18,0.07c-0.05,0-0.12-0.01-0.18-0.07c-0.06-0.06-0.07-0.14-0.07-0.18c0-0.04,0.01-0.11,0.07-0.18   c0.06-0.06,0.14-0.07,0.18-0.07c0.05,0,0.12,0.01,0.18,0.07c0.06,0.06,0.07,0.14,0.07,0.18C77.04,82.72,77.03,82.8,76.97,82.86z"/><path d="M78.9,79.56c-0.26,0-0.51,0.1-0.71,0.3c-0.39,0.39-0.39,1.03,0.01,1.41c0.2,0.19,0.45,0.29,0.7,0.29   c0.26,0,0.51-0.1,0.71-0.3c0.39-0.39,0.39-1.03-0.01-1.41C79.41,79.65,79.16,79.56,78.9,79.56z M79.08,80.73   c-0.06,0.06-0.14,0.07-0.18,0.07c-0.05,0-0.12-0.01-0.18-0.07c-0.06-0.06-0.07-0.14-0.07-0.18c0-0.04,0.01-0.11,0.07-0.18   c0.06-0.06,0.14-0.07,0.18-0.07c0.05,0,0.12,0.01,0.18,0.07c0.06,0.06,0.07,0.14,0.07,0.18C79.15,80.59,79.15,80.67,79.08,80.73z"/><path d="M76.77,79.44c0.26,0,0.51-0.1,0.71-0.3c0.39-0.39,0.39-1.03-0.01-1.41c-0.2-0.19-0.45-0.29-0.7-0.29   c-0.26,0-0.51,0.1-0.71,0.3c-0.39,0.39-0.39,1.03,0.01,1.41C76.27,79.35,76.52,79.44,76.77,79.44z M76.6,78.27   c0.06-0.06,0.14-0.07,0.18-0.07c0.05,0,0.12,0.01,0.18,0.07c0.06,0.06,0.07,0.14,0.07,0.18c0,0.04-0.01,0.11-0.07,0.18   c-0.06,0.06-0.14,0.07-0.18,0.07c-0.05,0-0.12-0.01-0.18-0.07C76.5,78.52,76.5,78.37,76.6,78.27z"/><path d="M78.89,77.31c0.26,0,0.51-0.1,0.71-0.3c0.39-0.39,0.39-1.03-0.01-1.41c-0.2-0.19-0.45-0.29-0.7-0.29   c-0.26,0-0.51,0.1-0.71,0.3c-0.39,0.39-0.39,1.03,0.01,1.41C78.38,77.22,78.63,77.31,78.89,77.31z M78.71,76.14   c0.06-0.06,0.14-0.07,0.18-0.07c0.05,0,0.12,0.01,0.18,0.07c0.06,0.06,0.07,0.14,0.07,0.18c0,0.04-0.01,0.11-0.07,0.18   c-0.06,0.06-0.14,0.07-0.18,0.07c-0.05,0-0.12-0.01-0.18-0.07c-0.06-0.06-0.07-0.14-0.07-0.18C78.64,76.28,78.65,76.2,78.71,76.14z   "/><path d="M81.02,77.43c-0.26,0-0.51,0.1-0.71,0.3c-0.39,0.39-0.39,1.03,0.01,1.41c0.2,0.19,0.45,0.29,0.7,0.29   c0.26,0,0.51-0.1,0.71-0.3c0.39-0.39,0.39-1.03-0.01-1.41C81.53,77.52,81.27,77.43,81.02,77.43z M81.19,78.6   c-0.06,0.06-0.14,0.07-0.18,0.07c-0.05,0-0.12-0.01-0.18-0.07c-0.06-0.06-0.07-0.14-0.07-0.18c0-0.04,0.01-0.11,0.07-0.18   c0.06-0.06,0.14-0.07,0.18-0.07c0.05,0,0.12,0.01,0.18,0.07c0.06,0.06,0.07,0.14,0.07,0.18C81.27,78.46,81.26,78.54,81.19,78.6z"/><polygon points="62.5,22.32 62.5,22.32 62.5,22.32  "/><path d="M75.54,26.67c-3.56-2.85-8.5-4.35-13.04-4.35v1c4.54,0,9.18,1.55,12.41,4.13c10.89,8.71,4.74,28.68,4,30.93   c-0.8,2.43-8.2,23.7-23.05,23.7c-0.16,0-0.32,0-0.48-0.01c-5.43-0.17-11.36-3.24-15.49-8.02c-3.06-3.55-4.6-7.4-4.23-10.59   c0.37-3.16,2.61-4.84,5.45-6.98c3.14-2.36,7.05-5.3,9.42-11.26c1.89-4.76,1.66-8.56,1.48-11.62c-0.18-3.05-0.31-5.25,1.6-7.23   c1.87-1.94,5.11-3.06,8.9-3.06l0-1c0,0,0,0,0,0c-3.86,0-7.44,1.09-9.62,3.36c-4.32,4.5,0.4,9.89-3.29,19.18   C45.21,55.9,35.52,55.93,34.66,63.35c-0.96,8.22,9.63,19.39,20.68,19.72c0.17,0.01,0.34,0.01,0.51,0.01   c15.69,0,23.26-22.11,24-24.39C80.65,56.29,87.04,35.88,75.54,26.67z"/><path d="M21.62,18.66c1.38,0,2.5-1.12,2.5-2.5s-1.12-2.5-2.5-2.5c-1.38,0-2.5,1.12-2.5,2.5S20.24,18.66,21.62,18.66z M21.62,14.66   c0.83,0,1.5,0.67,1.5,1.5s-0.67,1.5-1.5,1.5c-0.83,0-1.5-0.67-1.5-1.5S20.79,14.66,21.62,14.66z"/></g><text x="0" y="115" fill="#000000" font-size="5px" font-weight="bold" font-family="'Helvetica Neue', Helvetica, Arial-Unicode, Arial, Sans-serif">Created by Léa Lortal</text><text x="0" y="120" fill="#000000" font-size="5px" font-weight="bold" font-family="'Helvetica Neue', Helvetica, Arial-Unicode, Arial, Sans-serif">from the Noun Project</text></svg>