<svg xmlns="http://www.w3.org/2000/svg" data-name="Слой 1" viewBox="0 0 100 125" x="0px" y="0px"><title>plant</title><path d="M79.873,8.18249a0.502,0.502,0,0,0-.43066-0.40137c-5.36621-.6499-12.73633,3.10107-18.75391,9.55957-5.9574,6.396-9.16821,13.91632-8.23022,19.22443a45.34484,45.34484,0,0,0-3.00513,10.47479A70.35532,70.35532,0,0,0,46.2604,32.38085c0.67511-4.96649-2.54858-11.57922-8.25751-16.89758C32.24361,10.118,25.34566,7.36755,20.43013,8.46569a0.50044,0.50044,0,0,0-.38525.41309c-0.75146,4.981,2.48438,11.6665,8.24414,17.03223,4.9165,4.58008,10.6626,7.25781,15.29688,7.25781a10.58577,10.58577,0,0,0,1.83856-.169C48.08461,40.31542,48.94668,51.524,49.05513,53.078c0.0047,0.08417.00854,0.13495,0.01117,0.16614l-0.00006.00055,0.00116,0.01813s0.04077,0.62378.17688,1.7182c0.12793,1.07172.35016,2.5816,0.54742,4.39044-0.12927.03235-.27679,0.07117-0.45825,0.12555a14.37541,14.37541,0,0,0-2.10522.81793,16.27633,16.27633,0,0,0-2.71338,1.645,27.13316,27.13316,0,0,0-2.681,2.41022,30.72533,30.72533,0,0,1-5.10919,4.27972,18.63867,18.63867,0,0,1-1.939,1.04358l-0.76611.33771L34.7986,69.723a18.71251,18.71251,0,0,0,1.9859-.97241,30.95015,30.95015,0,0,0,5.30487-4.106,26.72147,26.72147,0,0,1,2.725-2.26862,15.696,15.696,0,0,1,2.67548-1.4848c0.04608-.02.088-0.03522,0.13336-0.05438,0.00177,0.11121.00024,0.2356-.00983,0.38214a8.40642,8.40642,0,0,1-.34094,1.798,15.56148,15.56148,0,0,1-1.00293,2.51422,15.603,15.603,0,0,0,1.2395-2.43329,8.74123,8.74123,0,0,0,.52362-1.83215,4.47145,4.47145,0,0,0,.05988-0.61993,13.59187,13.59187,0,0,1,1.43262-.457c0.129-.033.24207-0.05969,0.34015-0.08154a51.56331,51.56331,0,0,1,.27332,5.64923,24.71476,24.71476,0,0,1-.2558,3.53613,26.467,26.467,0,0,1-.817,3.57739c-0.34381,1.18951-.71222,2.38416-0.99286,3.58356a27.9065,27.9065,0,0,0-.60144,3.56189,18.71125,18.71125,0,0,0-.0802,3.37622,21.44373,21.44373,0,0,0,.38867,2.99475,26.60052,26.60052,0,0,0,1.24231,4.33313c0.38861,1.01691.67029,1.57208,0.67029,1.57208s-0.2677-.56219-0.62994-1.58691a26.49661,26.49661,0,0,1-1.12891-4.3465,21.24174,21.24174,0,0,1-.31073-2.97791,18.27028,18.27028,0,0,1,.13879-3.07141c0.04327,0.00806.07916,0.01306,0.14191,0.03a2.94334,2.94334,0,0,1,.76819.35565,5.609,5.609,0,0,1,1.728,1.96136,13.72277,13.72277,0,0,1,.60669,1.29041,4.15032,4.15032,0,0,0,.63593,1.079,3.484,3.484,0,0,0,.66809.57965l0.28534,0.17627L52.31667,85.596a3.45758,3.45758,0,0,1-.64435-0.59589,4.09288,4.09288,0,0,1-.593-1.08466,13.7875,13.7875,0,0,0-.56958-1.319,5.77949,5.77949,0,0,0-1.72095-2.07758,2.791,2.791,0,0,0-1.00452-.4519l0.00134-.01422a27.55336,27.55336,0,0,1,.68195-3.50116c0.30664-1.17627.70068-2.34888,1.077-3.5376a27.00622,27.00622,0,0,0,.92377-3.626,25.36254,25.36254,0,0,0,.3537-3.61542c0.02924-.82141.02869-1.61414,0.017-2.39038,0.36884,0.23773.88867,0.56183,1.52417,0.9278,0.6524,0.37488,1.42535.79254,2.27765,1.19287,0.42517,0.20172.87164,0.39655,1.33264,0.57715a12.082,12.082,0,0,0,1.425.47717,9.00167,9.00167,0,0,0,2.965.09991,7.50981,7.50981,0,0,1,2.509.06366,4.78216,4.78216,0,0,1,.94342.34711c0.27271,0.12708.48907,0.28015,0.677,0.38812l0.5473,0.40839s-0.1922-.15808-0.52869-0.43469c-0.183-.117-0.394-0.28162-0.66376-0.42328a4.87726,4.87726,0,0,0-.94476-0.3988,7.67386,7.67386,0,0,0-2.55426-.18732,8.76619,8.76619,0,0,1-2.83917-.22125A11.62025,11.62025,0,0,1,56.14614,65.67c-0.44159-.19745-0.86926-0.40857-1.27649-0.62585-0.63318-.33472-1.2002-0.67194-1.72229-0.99481a4.94429,4.94429,0,0,1,1.00739-.39417,5.64,5.64,0,0,1,1.62189-.168c0.621-.01459,1.27893-0.05164,1.93677-0.105a18.98842,18.98842,0,0,0,1.92578-.23993,3.18288,3.18288,0,0,0,.85358-0.2804L61.22548,62.55c0.90765-.38635,1.51276-0.64386,1.51276-0.64386s-0.616.22821-1.54,0.57062c-0.231.08557-.48126,0.17828-0.74591,0.27637a3.05663,3.05663,0,0,1-.84015.23328,18.83144,18.83144,0,0,1-1.91345.14618c-0.65405.022-1.31018,0.02759-1.9212,0.01282a6.04068,6.04068,0,0,0-1.723.1,5.40664,5.40664,0,0,0-1.38623.50861c-0.91162-.5849-1.56641-1.06036-1.8454-1.26837-0.03552-1.11011-.10205-2.15955-0.18274-3.12024-0.15472-1.8681-.34369-3.41339-0.44458-4.48877-0.10266-1.03583-.129-1.64325-0.13043-1.6781l0.00018-.00134-0.00732-.1123a38.85892,38.85892,0,0,1,3.24451-15.937c0.2807,0.02277.55957,0.0498,0.84973,0.0498,5.23145,0,11.94824-3.65918,17.5127-9.63232C77.68062,21.10778,80.9023,13.49938,79.873,8.18249ZM28.97066,25.17956C23.665,20.23669,20.5,13.94079,20.98971,9.37292c4.51855-.81689,11.02588,1.89941,16.33154,6.8418,4.71155,4.3894,7.72833,9.843,8.00336,14.20874C40.98086,22.93249,28.2195,15.4,27.63472,15.058a0.5,0.5,0,1,0-.50488.86328C27.278,16.008,41.62728,24.47289,45.04506,32.05413,40.534,32.72259,34.17745,30.0302,28.97066,25.17956Zm41.96191,1.7041c-5.45618,5.858-12.25031,9.5083-17.20551,9.29364C58.09,26.9381,73.67165,14.37334,73.832,14.2445a0.49986,0.49986,0,0,0-.625-0.78027c-0.64124.5141-14.91852,12.02777-19.90045,21.32336-0.044-4.83911,3.03571-11.3136,8.11432-16.76526,5.57617-5.98584,12.56055-9.667,17.53223-9.28467C79.68941,13.67028,76.50972,20.89733,70.93258,26.88366Z"/><text x="0" y="115" fill="#000000" font-size="5px" font-weight="bold" font-family="'Helvetica Neue', Helvetica, Arial-Unicode, Arial, Sans-serif">Created by Alex Muravev</text><text x="0" y="120" fill="#000000" font-size="5px" font-weight="bold" font-family="'Helvetica Neue', Helvetica, Arial-Unicode, Arial, Sans-serif">from the Noun Project</text></svg>