<svg xmlns="http://www.w3.org/2000/svg" xmlns:xlink="http://www.w3.org/1999/xlink" version="1.1" x="0px" y="0px" viewBox="0 0 100 125" enable-background="new 0 0 100 100" xml:space="preserve"><g><path d="M91.476,26.045H32.187v21.253h-9.969v-4.826H3.613v15.054h18.604v-4.824h9.969v21.252h59.289   c2.708,0,4.911-2.203,4.911-4.91V30.957C96.387,28.249,94.184,26.045,91.476,26.045z M84.78,27.607v44.786H42.523V27.607H84.78z    M20.656,51.471H5.174v-2.939h15.482V51.471z M20.656,44.035v2.935H5.174v-2.935H20.656z M5.174,55.967v-2.936h15.482v2.936H5.174z    M22.218,51.143V48.86h9.969v2.282H22.218z M33.748,52.703v-5.404V27.607h7.215v44.786h-7.215V52.703z M94.825,69.045   c0,1.847-1.502,3.349-3.35,3.349h-5.134V27.607h5.134c1.848,0,3.35,1.502,3.35,3.349V69.045z"/><path d="M81.869,34.447c0-2.797-2.275-5.071-5.072-5.071s-5.072,2.274-5.072,5.071v6.258h10.145V34.447z M80.309,39.145h-7.022   v-4.698c0-1.936,1.575-3.511,3.511-3.511s3.512,1.575,3.512,3.511V39.145z"/><path d="M76.797,70.626c2.797,0,5.072-2.275,5.072-5.072v-6.258H71.725v6.258C71.725,68.351,74,70.626,76.797,70.626z    M73.286,60.856h7.022v4.697c0,1.937-1.576,3.511-3.512,3.511s-3.511-1.574-3.511-3.511V60.856z"/><circle cx="76.797" cy="35.04" r="2.055"/><circle cx="76.797" cy="64.961" r="2.055"/></g><text x="0" y="115" fill="#000000" font-size="5px" font-weight="bold" font-family="'Helvetica Neue', Helvetica, Arial-Unicode, Arial, Sans-serif">Created by Bakunetsu Kaito</text><text x="0" y="120" fill="#000000" font-size="5px" font-weight="bold" font-family="'Helvetica Neue', Helvetica, Arial-Unicode, Arial, Sans-serif">from the Noun Project</text></svg>