<svg xmlns="http://www.w3.org/2000/svg" xmlns:xlink="http://www.w3.org/1999/xlink" version="1.1" x="0px" y="0px" viewBox="0 0 100 125" enable-background="new 0 0 100 100" xml:space="preserve"><path d="M30.757,87.957c-5.168,0.683-10.249-1.034-13.932-4.719c-3.686-3.686-5.406-8.763-4.719-13.932  c0.073-0.548-0.312-1.051-0.859-1.123c-0.546-0.067-1.05,0.312-1.123,0.859c-0.77,5.791,1.157,11.48,5.287,15.609  c3.53,3.532,8.205,5.453,13.11,5.453c0.828,0,1.663-0.055,2.499-0.166c0.548-0.072,0.933-0.575,0.86-1.123  C31.808,88.27,31.303,87.888,30.757,87.957z"/><path d="M17.088,68.956c-0.534-0.072-1.05,0.312-1.123,0.859c-0.527,3.96,0.789,7.85,3.612,10.671  c2.412,2.414,5.607,3.727,8.959,3.727c0.565,0,1.135-0.037,1.707-0.113c0.547-0.072,0.933-0.575,0.86-1.122  c-0.072-0.548-0.576-0.932-1.123-0.86c-3.338,0.439-6.613-0.668-8.989-3.045c-2.379-2.378-3.488-5.655-3.044-8.993  C18.02,69.532,17.636,69.029,17.088,68.956z"/><path d="M22.848,69.729c-0.541-0.071-1.05,0.313-1.122,0.86c-0.284,2.146,0.43,4.257,1.96,5.789c1.312,1.31,3.046,2.021,4.865,2.021  c0.307,0,0.617-0.021,0.927-0.062c0.548-0.072,0.933-0.575,0.86-1.123c-0.072-0.547-0.576-0.927-1.123-0.859  c-1.528,0.203-3.026-0.305-4.115-1.393c-1.086-1.088-1.594-2.586-1.392-4.112C23.781,70.303,23.396,69.801,22.848,69.729z"/><path d="M97.646,79.536c-0.34-1.397-1.389-2.446-2.403-3.46c0,0,0,0-0.001,0c0-0.001,0-0.001,0-0.001l-2.911-2.911  c-0.001-0.001-0.001-0.002-0.002-0.003s-0.002-0.001-0.003-0.002L76.125,56.958c-1.873-1.873-4.439-4.437-8.547-0.328l-2.057,2.057  l-4.357-4.358l8.505-8.505c2.893-2.892,7.395-7.403,4.672-13.02l5.704-2.208c0.003-0.001,0.004-0.003,0.007-0.004  c0.056-0.022,0.102-0.065,0.153-0.098c0.062-0.039,0.129-0.07,0.18-0.12c0.002-0.002,0.004-0.002,0.006-0.004  c0.028-0.028,0.039-0.064,0.063-0.095c0.057-0.071,0.113-0.141,0.148-0.223c0.025-0.06,0.029-0.123,0.042-0.185  c0.014-0.063,0.036-0.124,0.037-0.189c0.001-0.086-0.022-0.168-0.043-0.252c-0.011-0.041-0.006-0.083-0.021-0.124  c-0.001-0.002-0.003-0.004-0.004-0.006c-0.022-0.057-0.067-0.104-0.101-0.157c-0.038-0.061-0.068-0.127-0.117-0.177  c-0.002-0.001-0.002-0.004-0.004-0.005l-9.108-9.108c-0.002-0.002-0.005-0.002-0.007-0.004c-0.045-0.044-0.107-0.072-0.162-0.107  c-0.057-0.038-0.109-0.085-0.172-0.11c-0.002-0.001-0.004-0.003-0.006-0.004c-0.04-0.016-0.081-0.011-0.121-0.021  c-0.085-0.021-0.168-0.045-0.254-0.043c-0.064,0.001-0.124,0.023-0.187,0.036c-0.063,0.013-0.128,0.018-0.188,0.043  c-0.078,0.033-0.145,0.088-0.212,0.141c-0.034,0.026-0.074,0.039-0.105,0.07c-0.002,0.002-0.002,0.004-0.004,0.006  c-0.047,0.047-0.074,0.11-0.111,0.167c-0.036,0.056-0.082,0.106-0.106,0.167c-0.001,0.002-0.003,0.004-0.004,0.006l-2.205,5.705  c-5.616-2.724-10.128,1.776-13.02,4.669c-0.001,0.001-0.002,0.001-0.003,0.002l-7.761,7.762l-4.596-4.596l2.057-2.057  c1.793-1.793,2.473-3.458,2.075-5.086c-0.34-1.396-1.389-2.445-2.403-3.46c0,0-0.001,0-0.001-0.001l-2.911-2.911  c0,0,0-0.001-0.001-0.002s-0.002-0.001-0.002-0.001l-6.641-6.642c0,0,0-0.001-0.001-0.001s-0.001,0-0.001-0.001l-9.558-9.559  c0,0-0.001,0-0.001-0.001c0,0,0,0-0.001-0.001c-1.873-1.872-4.438-4.433-8.545-0.326L4.429,15.379  c-1.793,1.793-2.473,3.457-2.075,5.085c0.34,1.396,1.389,2.445,2.403,3.46c0,0,0.001,0,0.001,0.001l19.116,19.118c0,0,0,0,0,0  c0,0,0,0,0,0c1.137,1.136,2.528,2.527,4.364,2.527c1.19,0,2.567-0.584,4.183-2.2l2.057-2.057l4.597,4.597l-1.45,1.45  c-0.391,0.391-0.391,1.023,0,1.414l1.107,1.107l-4.434,4.435c-0.391,0.391-0.391,1.023,0,1.414l3.21,3.211l-2.53,2.529  c-3.839-2.854-9.375-4.82-11.963-2.247c-0.001,0.002-0.004,0.002-0.005,0.004c0,0,0,0.001-0.001,0.002c0,0,0,0,0,0  c-0.019,0.02-0.025,0.044-0.043,0.064c-0.07,0.083-0.137,0.169-0.176,0.266c-0.03,0.075-0.035,0.155-0.046,0.234  c-0.007,0.048-0.027,0.093-0.027,0.141c0,0.09,0.027,0.178,0.051,0.265c0.01,0.037,0.007,0.076,0.021,0.112  c0.04,0.097,0.106,0.184,0.177,0.267c0.017,0.02,0.023,0.045,0.042,0.063h0c0,0.001,0,0.002,0.001,0.002s0.001,0,0.001,0.001  l7.448,7.481l-1.225,1.225c-0.974-0.39-2.165-0.205-2.929,0.561c-1.043,1.043-1.043,2.74,0,3.783  c0.506,0.506,1.178,0.784,1.894,0.784s1.387-0.278,1.892-0.783c0.793-0.793,0.98-1.964,0.567-2.939l1.213-1.213l7.471,7.505h0  c0,0.001,0,0.002,0.001,0.002c0.087,0.087,0.188,0.146,0.294,0.195c0.013,0.006,0.023,0.019,0.036,0.023  c0.121,0.05,0.249,0.074,0.377,0.074c0.255,0,0.51-0.097,0.706-0.291c0,0,0-0.001,0.001-0.002c0,0,0,0,0,0  c1.395-1.395,1.594-3.826,0.56-6.848c-0.581-1.698-1.513-3.438-2.627-4.974l2.553-2.554l3.126,3.127  c0.188,0.188,0.442,0.293,0.707,0.293s0.52-0.105,0.707-0.293l4.435-4.435l1.246,1.246c0.195,0.195,0.451,0.293,0.707,0.293  s0.512-0.098,0.707-0.293l0.706-0.706l4.357,4.358l-2.057,2.057c-1.794,1.793-2.473,3.457-2.075,5.086  c0.34,1.397,1.39,2.446,2.404,3.461l2.913,2.913l0,0l0,0l6.645,6.645l0.001,0.001l0.001,0.001l6.642,6.641  c0.001,0.001,0.001,0.002,0.002,0.003s0.002,0.001,0.003,0.002l2.911,2.911c0,0,0,0,0.001,0c0,0.001,0,0.001,0,0.001  c1.014,1.015,2.063,2.063,3.46,2.403c0.299,0.073,0.6,0.11,0.902,0.11c1.343,0,2.72-0.722,4.183-2.186l2.76-2.759  c0.001-0.002,0.003-0.002,0.005-0.004s0.002-0.004,0.003-0.005l6.162-6.162h0.001v-0.001l2.764-2.763  C97.365,82.828,98.044,81.165,97.646,79.536z M28.675,72.282c-0.254,0.256-0.7,0.254-0.957-0.001c-0.263-0.264-0.263-0.691,0-0.955  c0.129-0.129,0.299-0.199,0.48-0.199c0.18,0,0.35,0.07,0.478,0.198C28.94,71.589,28.939,72.019,28.675,72.282z M94.157,83.208  l-2.057,2.057l-5.23-5.23l4.751-4.751l2.207,2.206c0,0,0,0,0.001,0c0,0.001,0,0.001,0,0.001c0.857,0.857,1.667,1.667,1.875,2.52  C95.784,80.338,96.027,81.338,94.157,83.208z M85.934,91.431l-5.229-5.23l4.752-4.752l5.23,5.23L85.934,91.431z M67.894,85.722  l4.752-4.752l5.23,5.23l-4.752,4.752L67.894,85.722z M61.248,79.076L66,74.324l5.231,5.231l-4.752,4.752L61.248,79.076z   M72.166,68.159l5.231,5.23l-4.752,4.752l-5.231-5.231L72.166,68.159z M66,71.496l-5.23-5.229l4.752-4.752l5.23,5.23L66,71.496z   M83.563,67.225l-4.751,4.751l-5.231-5.23l4.752-4.752L83.563,67.225z M90.207,73.869l-4.751,4.751l-5.23-5.23l4.751-4.751  L90.207,73.869z M74.06,79.556l4.752-4.752l5.23,5.23l-4.752,4.752L74.06,79.556z M68.992,58.044  c2.693-2.694,3.833-1.558,5.719,0.328l2.207,2.207l-4.752,4.752l-5.23-5.23L68.992,58.044z M70.954,22.348l6.937,6.937l-4.605,1.783  c-0.441-0.603-0.963-1.216-1.588-1.84l-0.686-0.686c-0.624-0.624-1.236-1.146-1.839-1.586L70.954,22.348z M69.598,29.955  l0.686,0.686c5.438,5.438,2.446,9.293-2.028,13.769l-9.21,9.21c-0.001,0.001-0.002,0.001-0.003,0.002s-0.001,0.002-0.002,0.003  l-6.869,6.869l-1.246-1.246L40.854,49.176l-1.107-1.107l16.081-16.083c0.001-0.001,0.002-0.001,0.003-0.002  C60.305,27.508,64.159,24.517,69.598,29.955z M42.701,30.264l-2.057,2.057l-5.23-5.23l4.752-4.752l2.206,2.206  c0,0,0,0.001,0.001,0.001c0.857,0.857,1.667,1.667,1.875,2.52C44.328,27.394,44.571,28.394,42.701,30.264z M16.438,32.777  l4.751-4.751l5.231,5.23l-4.752,4.752L16.438,32.777z M9.793,26.132l4.751-4.751l5.231,5.231l-4.751,4.751L9.793,26.132z   M14.065,8.57l5.231,5.231l-4.752,4.752l-5.23-5.23L14.065,8.57z M20.71,15.215l5.231,5.231l-4.752,4.752l-5.231-5.231L20.71,15.215  z M32.107,14.279l-4.752,4.752l-5.231-5.231l4.752-4.752L32.107,14.279z M38.751,20.924L34,25.676l-5.23-5.23l4.752-4.752  L38.751,20.924z M22.603,26.612l4.752-4.752l5.23,5.23l-4.751,4.751L22.603,26.612z M34,28.504l5.23,5.23l-4.751,4.751l-5.23-5.23  L34,28.504z M23.253,5.425l0.001,0.002c0,0,0.001,0,0.001,0.001l2.206,2.206l-4.752,4.752l-5.231-5.231l2.057-2.057  C20.232,2.404,21.368,3.542,23.253,5.425z M5.843,16.793l2.057-2.057l5.23,5.23l-4.751,4.751l-2.207-2.207c0,0,0-0.001-0.001-0.001  c-0.857-0.857-1.667-1.667-1.875-2.519C4.216,19.662,3.973,18.663,5.843,16.793z M31.008,41.957  c-2.696,2.695-3.833,1.557-5.719-0.328h0c0,0,0,0,0,0l-2.207-2.207l4.752-4.752l5.23,5.23L31.008,41.957z M35.893,39.9l4.751-4.751  l4.596,4.596l-4.751,4.752L35.893,39.9z M39.834,74.711L25.342,60.153c2.338-0.632,7.068,1.292,10.141,4.365  c1.689,1.689,3.163,4.057,3.942,6.332C39.96,72.417,40.091,73.769,39.834,74.711z M37.424,63.667  c-0.174-0.192-0.349-0.384-0.527-0.563c-0.117-0.117-0.248-0.232-0.373-0.349l2.399-2.399l0.906,0.905L37.424,63.667z   M45.076,63.682l-3.125-3.125c0-0.001,0-0.001-0.001-0.002s-0.001-0.001-0.002-0.001l-2.315-2.315  c-0.001-0.001-0.001-0.003-0.002-0.004s-0.003-0.002-0.004-0.003l-3.207-3.207l3.727-3.728l8.657,8.657L45.076,63.682z   M54.998,60.494l4.752-4.752l4.357,4.358l-4.752,4.752L54.998,60.494z M57.299,69.737l2.057-2.057l5.23,5.229l-4.752,4.752  l-2.206-2.206c-0.857-0.857-1.668-1.668-1.876-2.521C55.672,72.607,55.429,71.607,57.299,69.737z M79.266,96.448  c-0.853-0.208-1.662-1.018-2.52-1.875c0,0,0,0-0.001,0c0-0.001,0-0.001,0-0.001l-2.207-2.206l4.752-4.752l5.229,5.23l-2.057,2.057  C80.592,96.771,79.591,96.526,79.266,96.448z"/><text x="0" y="115" fill="#000000" font-size="5px" font-weight="bold" font-family="'Helvetica Neue', Helvetica, Arial-Unicode, Arial, Sans-serif">Created by Noura Mbarki</text><text x="0" y="120" fill="#000000" font-size="5px" font-weight="bold" font-family="'Helvetica Neue', Helvetica, Arial-Unicode, Arial, Sans-serif">from the Noun Project</text></svg>