<svg xmlns="http://www.w3.org/2000/svg" viewBox="0 0 32 40" x="0px" y="0px"><title>Artboard 26</title><g data-name="Layer 6"><path d="M23,26.5H9a7,7,0,0,1-.87-13.95,8.49,8.49,0,0,1,16.77.22A7,7,0,0,1,23,26.5Zm-6.5-19A6.51,6.51,0,0,0,10,13.57a1,1,0,0,1-1,.93,5,5,0,1,0,0,10H23a5,5,0,0,0,.82-9.93,1,1,0,0,1-.84-.93A6.49,6.49,0,0,0,16.5,7.5Z"/></g><text x="0" y="47" fill="#000000" font-size="5px" font-weight="bold" font-family="'Helvetica Neue', Helvetica, Arial-Unicode, Arial, Sans-serif">Created by Debi Alpa Nugraha</text><text x="0" y="52" fill="#000000" font-size="5px" font-weight="bold" font-family="'Helvetica Neue', Helvetica, Arial-Unicode, Arial, Sans-serif">from the Noun Project</text></svg>