<svg xmlns="http://www.w3.org/2000/svg" xmlns:xlink="http://www.w3.org/1999/xlink" version="1.1" x="0px" y="0px" viewBox="0 0 64 80" style="enable-background:new 0 0 64 64;" xml:space="preserve"><g><path d="M60,12H4c-1.654,0-3,1.346-3,3v34c0,1.654,1.346,3,3,3h56c1.654,0,3-1.346,3-3v-2v-8V25v-8v-2C63,13.346,61.654,12,60,12z    M61,46h-6v-6h2v2h2v-2h2V46z M59,38V26h2v12H59z M57,22v2h-2v-6h6v6h-2v-2H57z M60,50H4c-0.551,0-1-0.448-1-1V15   c0-0.551,0.449-1,1-1h56c0.551,0,1,0.449,1,1v1h-7c-0.552,0-1,0.448-1,1v8c0,0.552,0.448,1,1,1h3v12h-3c-0.552,0-1,0.447-1,1v8   c0,0.553,0.448,1,1,1h7v1C61,49.552,60.551,50,60,50z"/><path d="M41,24c0-0.552-0.448-1-1-1h-1v-4h-2v4h-2v-4h-2v4h-2v-4h-2v4h-2v-4h-2v4h-1c-0.552,0-1,0.448-1,1v1h-4v2h4v2h-4v2h4v2h-4   v2h4v2h-4v2h4v1c0,0.553,0.448,1,1,1h1v4h2v-4h2v4h2v-4h2v4h2v-4h2v4h2v-4h1c0.552,0,1-0.447,1-1v-1h4v-2h-4v-2h4v-2h-4v-2h4v-2h-4   v-2h4v-2h-4V24z M39,39H25V25h14V39z"/><path d="M29,29h2v-2h-3c-0.552,0-1,0.448-1,1v3h2V29z"/><path d="M37,36v-3h-2v2h-2v2h3C36.552,37,37,36.553,37,36z"/><path d="M10,16H6c-0.552,0-1,0.448-1,1v6c0,0.552,0.448,1,1,1h1v16H6c-0.552,0-1,0.447-1,1v6c0,0.553,0.448,1,1,1h4   c0.552,0,1-0.447,1-1v-6c0-0.553-0.448-1-1-1H9V24h1c0.552,0,1-0.448,1-1v-6C11,16.448,10.552,16,10,16z M9,46H7v-4h2V46z M9,22H7   v-4h2V22z"/><rect x="13" y="16" width="2" height="2"/><rect x="15" y="18" width="2" height="2"/><rect x="13" y="20" width="2" height="2"/><rect x="15" y="22" width="2" height="2"/><rect x="13" y="24" width="2" height="2"/><rect x="15" y="26" width="2" height="2"/><rect x="13" y="28" width="2" height="2"/><rect x="15" y="30" width="2" height="2"/><rect x="13" y="32" width="2" height="2"/><rect x="15" y="34" width="2" height="2"/><rect x="13" y="36" width="2" height="2"/><rect x="15" y="38" width="2" height="2"/><rect x="13" y="40" width="2" height="2"/><rect x="15" y="42" width="2" height="2"/><rect x="13" y="44" width="2" height="2"/><rect x="15" y="46" width="2" height="2"/><rect x="47" y="16" width="2" height="2"/><rect x="49" y="18" width="2" height="2"/><rect x="47" y="20" width="2" height="2"/><rect x="49" y="22" width="2" height="2"/><rect x="47" y="24" width="2" height="2"/><rect x="49" y="26" width="2" height="2"/><rect x="47" y="28" width="2" height="2"/><rect x="49" y="30" width="2" height="2"/><rect x="47" y="32" width="2" height="2"/><rect x="49" y="34" width="2" height="2"/><rect x="47" y="36" width="2" height="2"/><rect x="49" y="38" width="2" height="2"/><rect x="47" y="40" width="2" height="2"/><rect x="49" y="42" width="2" height="2"/><rect x="47" y="44" width="2" height="2"/><rect x="49" y="46" width="2" height="2"/></g><text x="0" y="79" fill="#000000" font-size="5px" font-weight="bold" font-family="'Helvetica Neue', Helvetica, Arial-Unicode, Arial, Sans-serif">Created by Template</text><text x="0" y="84" fill="#000000" font-size="5px" font-weight="bold" font-family="'Helvetica Neue', Helvetica, Arial-Unicode, Arial, Sans-serif">from the Noun Project</text></svg>