<svg xmlns="http://www.w3.org/2000/svg" viewBox="0 0 64 80" x="0px" y="0px"><title>Bulb-idea-light-light bulb</title><g data-name="Layer 3"><path d="M37.79,47c0-2,3.09-7.4,5.14-11a34.75,34.75,0,0,0,2.33-4.39A15.52,15.52,0,0,0,46,27.23a14,14,0,0,0-28,0,15.52,15.52,0,0,0,.74,4.41A34.75,34.75,0,0,0,21.07,36c2.05,3.57,5.14,9,5.14,11a1,1,0,0,0,1,1h9.58A1,1,0,0,0,37.79,47Zm-1.88-1H28.09c-.51-2.5-2.7-6.46-5.28-11a41.22,41.22,0,0,1-2.18-4A13.59,13.59,0,0,1,20,27.23a12,12,0,0,1,24,0A13.59,13.59,0,0,1,43.37,31a41.22,41.22,0,0,1-2.18,4C38.61,39.54,36.42,43.5,35.91,46Z"/><path d="M35.5,59.21,34.13,60H29.87l-1.37-.79a1,1,0,1,0-1,1.74l1.6.92a1.06,1.06,0,0,0,.5.13h4.8a1.06,1.06,0,0,0,.5-.13L36.5,61a1,1,0,1,0-1-1.74Z"/><path d="M35.9,49.21l-8,.79a1,1,0,0,0,.1,2h.1l8-.8a1,1,0,0,0,.9-1.1A1,1,0,0,0,35.9,49.21Z"/><path d="M35.9,52.21l-8,.79a1,1,0,0,0,.1,2h.1l8-.8a1,1,0,0,0,.9-1.1A1,1,0,0,0,35.9,52.21Z"/><path d="M35.9,55.21l-8,.79a1,1,0,0,0,.1,2h.1l8-.8a1,1,0,0,0,.9-1.1A1,1,0,0,0,35.9,55.21Z"/><path d="M31,3v7a1,1,0,0,0,2,0V3a1,1,0,0,0-2,0Z"/><path d="M45.44,16l4.94-5A1,1,0,0,0,49,9.62l-4.95,5A1,1,0,0,0,44,16a1,1,0,0,0,.71.29A1,1,0,0,0,45.44,16Z"/><path d="M58,28a1,1,0,0,0-1-1H50a1,1,0,0,0,0,2h7A1,1,0,0,0,58,28Z"/><path d="M49,46.38a1,1,0,0,0,.71.3,1,1,0,0,0,.7-1.71L45.44,40A1,1,0,0,0,44,40a1,1,0,0,0,0,1.41Z"/><path d="M14.32,46.68a1,1,0,0,0,.71-.3l5-5A1,1,0,0,0,20,40a1,1,0,0,0-1.42,0L13.62,45a1,1,0,0,0,.7,1.71Z"/><path d="M7,29h7a1,1,0,0,0,0-2H7a1,1,0,0,0,0,2Z"/><path d="M13.62,9.62a1,1,0,0,0,0,1.41l4.94,5a1,1,0,0,0,.71.29A1,1,0,0,0,20,16a1,1,0,0,0,0-1.41l-5-5A1,1,0,0,0,13.62,9.62Z"/><path d="M37.68,29.05,32,31l-5.68-1.9A1,1,0,0,0,25,30.29l4,13A1,1,0,1,0,31,42.71L27.53,31.56,31.68,33a1,1,0,0,0,.64,0l4.15-1.39L33,42.71A1,1,0,0,0,33.71,44,.92.92,0,0,0,34,44a1,1,0,0,0,1-.71l4-13a1,1,0,0,0-1.28-1.24Z"/></g><text x="0" y="79" fill="#000000" font-size="5px" font-weight="bold" font-family="'Helvetica Neue', Helvetica, Arial-Unicode, Arial, Sans-serif">Created by Pause08</text><text x="0" y="84" fill="#000000" font-size="5px" font-weight="bold" font-family="'Helvetica Neue', Helvetica, Arial-Unicode, Arial, Sans-serif">from the Noun Project</text></svg>