<svg xmlns="http://www.w3.org/2000/svg" data-name="Layer 1" viewBox="0 0 96 116.8875" x="0px" y="0px"><title>18</title><path d="M97.28,40.76A31.82,31.82,0,0,0,77.71,17.64c-1.4.77-4.47,2.39-7.48,3.64a15.14,15.14,0,0,1-7.81,1,18.06,18.06,0,0,0,2.17,2.18c2.15,2,2.8,6.45,2.8,6.45a20.36,20.36,0,0,1-2.3.45c-7.63.34-17.59-5.15-17.59-5.15-2.15-.11-6.28,1.64-9.68,3.11s-10.65,2-10.65,2A34.79,34.79,0,0,1,30,25.59C31.76,22.87,34,19.81,34,19.81c-2.5-1.09-4.93-3.91-6.09-5.39C8.43,20.62-2.47,42.28,3.75,62.49a48.65,48.65,0,0,0,52,34C91.82,92.46,100.84,56.46,97.28,40.76Z" transform="translate(-2 -3.24)"/><path d="M40.05,18.67C37.93,20.38,32.66,27,32.66,27s4.75-1.44,6.25-2.14c6-2.76,9.64-2.66,9.64-2.66a62.36,62.36,0,0,0,13.63,5.2c-.67-2.17-2.1-1.76-4-6.09-1.06-2.41,1.48-2.06,5.58-2.11C70.26,19.1,79,12.8,79,12.8c-3.24-.87-9.09,3.14-13.09,3a67.33,67.33,0,0,1-10.25-1.61c-2.67-1.35-2-6.31-1.43-8.7A1.74,1.74,0,0,0,53,3.42a8.21,8.21,0,0,0-3.26,0,1.63,1.63,0,0,0-.85.42C45.68,7,46.38,13.3,46.38,13.3a4,4,0,0,0,3.71,3.62c3.4.26,4.42-.85,4.42-.85s-1.77,3.46-7,2c-2-.56-3.21-2.36-3.93-4.47L40.37,14c-6.34-.44-12.43-8.1-12.43-8.1A17.59,17.59,0,0,0,40.05,18.67Z" transform="translate(-2 -3.24)"/><text x="0" y="108.51" fill="#000000" font-size="5px" font-weight="bold" font-family="'Helvetica Neue', Helvetica, Arial-Unicode, Arial, Sans-serif">Created by parkjisun</text><text x="0" y="113.51" fill="#000000" font-size="5px" font-weight="bold" font-family="'Helvetica Neue', Helvetica, Arial-Unicode, Arial, Sans-serif">from the Noun Project</text></svg>