<svg xmlns="http://www.w3.org/2000/svg" xmlns:xlink="http://www.w3.org/1999/xlink" xmlns:serif="http://www.serif.com/" viewBox="0 0 101 126.25" version="1.1" xml:space="preserve" style="" x="0px" y="0px" fill-rule="evenodd" clip-rule="evenodd" stroke-linejoin="round" stroke-miterlimit="2"><path d="M7.504,77.445l-2.081,-0c-2.167,-0 -3.923,-1.756 -3.923,-3.923l-0,-55.77c-0,-2.166 1.756,-3.922 3.923,-3.922l90.154,-0c2.167,-0 3.923,1.756 3.923,3.922l0,55.77c0,2.167 -1.756,3.923 -3.923,3.923l-38.747,-0c-0.202,0.647 -0.572,1.247 -1.1,1.729c-1.334,1.217 -3.326,1.367 -4.827,0.363l-5.037,-3.372l-0.632,7.415c-0.156,1.843 -1.579,3.326 -3.414,3.559c-1.835,0.233 -3.583,-0.847 -4.195,-2.592l-2.494,-7.102l-5.928,-0l-2.493,7.102c-0.613,1.745 -2.361,2.825 -4.196,2.592c-1.835,-0.233 -3.257,-1.716 -3.414,-3.559l-0.632,-7.415l-5.037,3.372c-1.501,1.004 -3.493,0.854 -4.827,-0.363c-0.528,-0.482 -0.898,-1.082 -1.1,-1.729Zm12.863,-17.892l-9.118,16.724l10.564,-7.071l1.195,14.041l7.575,-21.576c-2.384,1.042 -5.134,1.015 -7.527,-0.138c-1.029,-0.495 -1.935,-1.171 -2.689,-1.98Zm23.6,-0c-0.753,0.809 -1.66,1.485 -2.689,1.98c-2.393,1.153 -5.143,1.18 -7.527,0.138l7.575,21.576l1.195,-14.041l10.564,7.071l-9.118,-16.724Zm12.084,13.969l39.526,-0l0,-55.77l-90.154,-0l0,55.77l2.86,-0l9.886,-18.133c-0.099,-0.439 -0.165,-0.888 -0.198,-1.345l-0.007,-0.104l-0.1,-0.031c-3.096,-0.941 -5.45,-3.469 -6.17,-6.623c-0.72,-3.155 0.304,-6.453 2.685,-8.645l0.077,-0.07l-0.039,-0.097c-1.194,-3.008 -0.686,-6.424 1.332,-8.954c2.017,-2.53 5.235,-3.785 8.433,-3.291l0.103,0.016l0.052,-0.09c1.607,-2.809 4.594,-4.542 7.83,-4.542c3.236,-0 6.224,1.733 7.83,4.542l0.052,0.09l0.103,-0.016c3.198,-0.494 6.416,0.761 8.433,3.291c2.018,2.53 2.526,5.946 1.332,8.954l-0.039,0.097l0.077,0.07c2.381,2.192 3.405,5.49 2.685,8.645c-0.72,3.154 -3.074,5.682 -6.17,6.623l-0.1,0.031l-0.007,0.104c-0.032,0.457 -0.099,0.906 -0.198,1.345l9.886,18.133Zm-25.471,-0l3.174,-0l-1.587,-4.52l-1.587,4.52Zm34.025,-11.495l-3.007,3.321c-0.727,0.803 -1.968,0.864 -2.771,0.137c-0.802,-0.726 -0.863,-1.968 -0.137,-2.77l6.001,-6.626c0.54,-0.596 1.39,-0.802 2.143,-0.52c0.754,0.283 1.258,0.998 1.272,1.802l0.573,4.508c1.361,-0.682 2.991,-1.846 2.991,-1.846c0.668,-0.453 1.546,-0.451 2.212,0.007l3.51,2.413l9.406,0.117c1.082,0.014 1.95,0.904 1.936,1.986c-0.013,1.083 -0.903,1.95 -1.985,1.937l-10.002,-0.125c-0.388,-0.005 -0.767,-0.125 -1.087,-0.345l-2.942,-2.023c-1.333,0.807 -3.488,2.027 -4.625,2.216c-1.029,0.172 -2.156,-0.263 -2.842,-1.717c-0.281,-0.596 -0.49,-1.503 -0.646,-2.472Zm-36.863,-33.924c0.908,-1.587 2.596,-2.567 4.425,-2.567c1.829,-0 3.517,0.98 4.426,2.567c0.802,1.403 1.391,2.431 1.391,2.431c-0,-0 1.171,-0.181 2.768,-0.428c1.808,-0.28 3.626,0.43 4.766,1.86c1.14,1.43 1.428,3.36 0.753,5.06c-0.597,1.502 -1.034,2.604 -1.034,2.604c-0,-0 0.872,0.803 2.061,1.897c1.346,1.239 1.925,3.103 1.518,4.886c-0.407,1.783 -1.738,3.211 -3.487,3.743c-1.547,0.471 -2.681,0.816 -2.681,0.816c-0,-0 -0.083,1.182 -0.198,2.794c-0.129,1.824 -1.226,3.439 -2.874,4.233c-1.647,0.793 -3.594,0.644 -5.1,-0.393c-1.332,-0.915 -2.309,-1.587 -2.309,-1.587c-0,-0 -0.977,0.672 -2.308,1.587c-1.507,1.037 -3.454,1.186 -5.101,0.393c-1.648,-0.794 -2.744,-2.409 -2.874,-4.233c-0.114,-1.612 -0.198,-2.794 -0.198,-2.794c-0,-0 -1.134,-0.345 -2.681,-0.816c-1.749,-0.532 -3.08,-1.96 -3.487,-3.743c-0.407,-1.783 0.172,-3.647 1.518,-4.886c1.189,-1.094 2.061,-1.897 2.061,-1.897c-0,-0 -0.437,-1.102 -1.034,-2.604c-0.675,-1.7 -0.387,-3.63 0.753,-5.06c1.14,-1.43 2.959,-2.14 4.766,-1.86c1.597,0.247 2.768,0.428 2.768,0.428c-0,-0 0.589,-1.028 1.392,-2.431Zm4.425,4.529c-5.181,-0 -9.388,4.207 -9.388,9.388c-0,5.181 4.207,9.388 9.388,9.388c5.181,-0 9.388,-4.207 9.388,-9.388c-0,-5.181 -4.207,-9.388 -9.388,-9.388Zm28.535,15.779l25.513,-0c1.083,-0 1.962,-0.879 1.962,-1.961c-0,-1.083 -0.879,-1.962 -1.962,-1.962l-25.513,-0c-1.083,-0 -1.962,0.879 -1.962,1.962c-0,1.082 0.879,1.961 1.962,1.961Zm-28.535,-11.856c3.016,-0 5.465,2.449 5.465,5.465c-0,3.016 -2.449,5.465 -5.465,5.465c-3.016,-0 -5.465,-2.449 -5.465,-5.465c-0,-3.016 2.449,-5.465 5.465,-5.465Zm28.535,2.049l25.513,-0c1.083,-0 1.962,-0.878 1.962,-1.961c-0,-1.083 -0.879,-1.961 -1.962,-1.961l-25.513,-0c-1.083,-0 -1.962,0.878 -1.962,1.961c-0,1.083 0.879,1.961 1.962,1.961Zm7.201,-9.806l11.111,-0c1.083,-0 1.962,-0.879 1.962,-1.962c-0,-1.082 -0.879,-1.961 -1.962,-1.961l-11.111,-0c-1.083,-0 -1.962,0.879 -1.962,1.961c-0,1.083 0.879,1.962 1.962,1.962Z"/><text x="0" y="116" fill="#000000" font-size="5px" font-weight="bold" font-family="'Helvetica Neue', Helvetica, Arial-Unicode, Arial, Sans-serif">Created by alimasykurm</text><text x="0" y="121" fill="#000000" font-size="5px" font-weight="bold" font-family="'Helvetica Neue', Helvetica, Arial-Unicode, Arial, Sans-serif">from the Noun Project</text></svg>