<svg xmlns="http://www.w3.org/2000/svg" xmlns:xlink="http://www.w3.org/1999/xlink" version="1.1" x="0px" y="0px" viewBox="0 0 100 125" enable-background="new 0 0 100 100" xml:space="preserve"><ellipse cx="48.788" cy="32.817" rx="25.256" ry="8.817"/><path d="M81.165,52.671c0,7.388-14.023,13.171-31.93,13.171c-17.905,0-31.929-5.783-31.929-13.171c0-2.148,1.206-4.26,3.488-6.099  v2.435c-1.13,1.192-1.695,2.42-1.695,3.664c0,6.169,13.8,11.378,30.136,11.378c16.337,0,30.137-5.209,30.137-11.378  c0-1.834-1.26-3.399-2.641-4.556v-2.242C79.632,47.887,81.165,50.236,81.165,52.671z"/><path d="M74.044,36.702c0,4.87-11.309,8.818-25.256,8.818c-13.948,0-25.256-3.948-25.256-8.818v15.244  c0,4.869,11.308,8.817,25.256,8.817c13.948,0,25.256-3.948,25.256-8.817V36.702z"/><path d="M49.834,72.629c-12.61,0-24.72-1.838-34.1-5.175C6.018,63.997,0.667,59.402,0.667,54.519c0-4.604,4.513-8.321,13.412-11.047  c0.946-0.29,1.95,0.241,2.24,1.189c0.291,0.947-0.242,1.95-1.188,2.24c-6.913,2.118-10.876,4.895-10.876,7.619  c0,5.922,17.756,14.524,45.58,14.524c27.823,0,45.58-8.603,45.58-14.524c0-2.635-3.75-5.345-10.287-7.434  c-0.942-0.302-1.464-1.311-1.162-2.254s1.312-1.463,2.254-1.162C94.7,46.379,99,50.029,99,54.519c0,4.884-5.352,9.479-15.067,12.936  C74.554,70.791,62.443,72.629,49.834,72.629z"/><text x="0" y="115" fill="#000000" font-size="5px" font-weight="bold" font-family="'Helvetica Neue', Helvetica, Arial-Unicode, Arial, Sans-serif">Created by Dan Hetteix</text><text x="0" y="120" fill="#000000" font-size="5px" font-weight="bold" font-family="'Helvetica Neue', Helvetica, Arial-Unicode, Arial, Sans-serif">from the Noun Project</text></svg>