<svg xmlns="http://www.w3.org/2000/svg" xmlns:xlink="http://www.w3.org/1999/xlink" version="1.1" x="0px" y="0px" viewBox="0 0 90 112.5" enable-background="new 0 0 90 90" xml:space="preserve"><g><path d="M45.9,10.5c-19.3,0-35,15.7-35,35s15.7,35,35,35c19.3,0,35-15.7,35-35S65.2,10.5,45.9,10.5z M45.9,78.6   c-18.2,0-33-14.8-33-33s14.8-33,33-33s33,14.8,33,33S64.1,78.6,45.9,78.6z"/><path d="M73.5,36.6C73.5,36.6,73.5,36.6,73.5,36.6C73.5,36.6,73.5,36.6,73.5,36.6c-1.9-5.9-5.6-10.9-10.5-14.5c0,0,0,0-0.1-0.1   c0,0-0.1,0-0.1,0c-4.8-3.5-10.6-5.5-17-5.5c-6.3,0-12.2,2-17,5.5c0,0-0.1,0-0.1,0c0,0,0,0-0.1,0.1c-4.9,3.6-8.6,8.6-10.5,14.4   c0,0,0,0,0,0c0,0,0,0,0,0c-0.9,2.8-1.4,5.8-1.4,8.9s0.5,6.1,1.4,8.9c0,0,0,0,0,0c0,0,0,0,0,0C20.3,60.4,24,65.4,28.8,69   c0,0,0,0,0.1,0.1c0,0,0.1,0,0.1,0.1c4.8,3.5,10.6,5.5,17,5.5c16,0,29-13,29-29C75,42.4,74.5,39.4,73.5,36.6z M45.9,72.6   c-5.6,0-10.8-1.7-15.1-4.6l3.5-4.9c0.3-0.4,0.2-1.1-0.2-1.4c-0.4-0.3-1.1-0.2-1.4,0.2l-3.5,4.9c-3.9-3.1-7-7.2-8.7-11.9l5.7-1.9   c0.5-0.2,0.8-0.7,0.6-1.3c-0.2-0.5-0.7-0.8-1.3-0.6L20,52.9c-0.7-2.4-1-4.8-1-7.4s0.4-5,1-7.4l5.7,1.9c0.1,0,0.2,0,0.3,0   c0.4,0,0.8-0.3,1-0.7c0.2-0.5-0.1-1.1-0.6-1.3l-5.7-1.9c1.7-4.7,4.8-8.9,8.7-11.9l3.5,4.9c0.2,0.3,0.5,0.4,0.8,0.4   c0.2,0,0.4-0.1,0.6-0.2c0.4-0.3,0.5-0.9,0.2-1.4l-3.5-4.9c4-2.7,8.9-4.4,14.1-4.6v6c0,0.6,0.4,1,1,1s1-0.4,1-1v-6   c5.2,0.2,10,1.8,14.1,4.6L57.4,28c-0.3,0.4-0.2,1.1,0.2,1.4c0.2,0.1,0.4,0.2,0.6,0.2c0.3,0,0.6-0.1,0.8-0.4l3.5-4.9   c3.9,3.1,7,7.2,8.7,11.9l-5.7,1.9c-0.5,0.2-0.8,0.7-0.6,1.3c0.1,0.4,0.5,0.7,1,0.7c0.1,0,0.2,0,0.3,0l5.7-1.9c0.7,2.4,1,4.8,1,7.4   C73,60.5,60.8,72.6,45.9,72.6z"/><path d="M56.4,31.6l-3.1-6.1c-0.1-0.2-0.3-0.4-0.6-0.5c-0.3-0.1-0.5-0.1-0.8,0.1l-6.1,3.1c-7.6,0.1-14.3,5-16.6,12.3   c-3,9.3,2.2,19.2,11.4,22.2c1.8,0.6,3.6,0.8,5.4,0.8c7.7,0,14.5-4.9,16.8-12.3C65.1,43.9,62.5,36.1,56.4,31.6z M60.9,50.6   c-2.1,6.5-8.1,10.9-14.9,10.9c-1.6,0-3.2-0.3-4.8-0.7C33,58.1,28.4,49.3,31,41.1c2.1-6.5,8.1-10.9,15-10.9c0.2,0,0.3,0,0.5-0.1   l5.4-2.8l2.8,5.4c0.1,0.1,0.2,0.3,0.3,0.4C60.6,37,63,44.1,60.9,50.6z"/></g><text x="0" y="105" fill="#000000" font-size="5px" font-weight="bold" font-family="'Helvetica Neue', Helvetica, Arial-Unicode, Arial, Sans-serif">Created by Jamie Dickinson</text><text x="0" y="110" fill="#000000" font-size="5px" font-weight="bold" font-family="'Helvetica Neue', Helvetica, Arial-Unicode, Arial, Sans-serif">from the Noun Project</text></svg>