<svg xmlns:rdf="http://www.w3.org/1999/02/22-rdf-syntax-ns#" xmlns:dc="http://purl.org/dc/elements/1.1/" xmlns:sodipodi="http://sodipodi.sourceforge.net/DTD/sodipodi-0.dtd" xmlns:svg="http://www.w3.org/2000/svg" xmlns:cc="http://creativecommons.org/ns#" xmlns:inkscape="http://www.inkscape.org/namespaces/inkscape" xmlns="http://www.w3.org/2000/svg" xmlns:xlink="http://www.w3.org/1999/xlink" version="1.1" x="0px" y="0px" viewBox="0 0 800 1000" enable-background="new 0 0 800 800" xml:space="preserve"><g><path fill="#000000" d="M576.173,404.305V218.91c0-97.135-79.038-176.173-176.181-176.173   c-97.135,0-176.173,79.039-176.173,176.173v185.395c-23.121,10.468-37.547,29.128-37.547,49.611   c0,32.693,34.846,58.289,79.337,58.289h23.08v230.479c0,8.064,6.532,14.58,14.564,14.58c8.056,0,14.58-6.516,14.58-14.58V512.205   h164.334v134.609c0,8.049,6.517,14.58,14.564,14.58s14.572-6.531,14.572-14.58V512.205h23.088   c44.483,0,79.337-25.596,79.337-58.289C613.729,433.433,599.302,414.772,576.173,404.305z M534.392,483.061H265.608   c-29.58,0-50.192-15.354-50.192-29.145c0-10.209,10.992-20.531,27.354-25.692c6.072-1.92,10.193-7.532,10.193-13.903V218.91   c0-81.071,65.958-147.037,147.029-147.037c81.078,0,147.045,65.966,147.045,147.037v195.41c0,6.371,4.12,11.983,10.177,13.903   c16.37,5.161,27.37,15.483,27.37,25.692C584.584,467.706,563.972,483.061,534.392,483.061z"/><path fill="#000000" d="M496.731,395.631H303.252c-8.032,0-14.564,6.532-14.564,14.577c0,8.048,6.532,14.563,14.564,14.563h193.479   c8.048,0,14.572-6.516,14.572-14.563C511.304,402.163,504.779,395.631,496.731,395.631z"/></g><text x="0" y="815" fill="#000000" font-size="5px" font-weight="bold" font-family="'Helvetica Neue', Helvetica, Arial-Unicode, Arial, Sans-serif">Created by abderraouf omara</text><text x="0" y="820" fill="#000000" font-size="5px" font-weight="bold" font-family="'Helvetica Neue', Helvetica, Arial-Unicode, Arial, Sans-serif">from the Noun Project</text></svg>