<svg xmlns="http://www.w3.org/2000/svg" xmlns:xlink="http://www.w3.org/1999/xlink" version="1.1" x="0px" y="0px" viewBox="0 0 64 80" style="enable-background:new 0 0 64 64;" xml:space="preserve"><g><path d="M40,1H24c-7.168,0-13,5.832-13,13v2v2v4c0,5.004,2.846,9.349,7,11.521V60c0,1.654,1.346,3,3,3s3-1.346,3-3V35h16v25   c0,1.654,1.346,3,3,3s3-1.346,3-3V33.521c4.154-2.172,7-6.517,7-11.521v-4v-2v-2C53,6.832,47.168,1,40,1z M13,14   c0-6.065,4.935-11,11-11h1v4h11c0.552,0,1,0.449,1,1s-0.448,1-1,1H25v6h11c0.552,0,1,0.449,1,1s-0.448,1-1,1H25v6h11   c0.552,0,1,0.449,1,1s-0.448,1-1,1H25v4h-1c-6.065,0-11-4.935-11-11v-2V14z M22,60c0,0.552-0.448,1-1,1s-1-0.448-1-1V34.364   c0.645,0.209,1.315,0.359,2,0.466V60z M44,60c0,0.552-0.448,1-1,1s-1-0.448-1-1V34.83c0.685-0.107,1.355-0.257,2-0.466V60z M40,33   H24c-4.664,0-8.648-2.922-10.246-7.027C16.135,29.026,19.837,31,24,31h16c4.163,0,7.865-1.974,10.246-5.027   C48.648,30.078,44.664,33,40,33z M51,18c0,6.065-4.935,11-11,11H27v-2h9c1.654,0,3-1.346,3-3s-1.346-3-3-3h-9v-2h9   c1.654,0,3-1.346,3-3s-1.346-3-3-3h-9v-2h9c1.654,0,3-1.346,3-3s-1.346-3-3-3h-9V3h13c6.065,0,11,4.935,11,11v2V18z"/><path d="M20,19c1.654,0,3-1.346,3-3s-1.346-3-3-3s-3,1.346-3,3S18.346,19,20,19z M20,15c0.552,0,1,0.449,1,1s-0.448,1-1,1   s-1-0.449-1-1S19.448,15,20,15z"/><path d="M44,13c-1.654,0-3,1.346-3,3s1.346,3,3,3s3-1.346,3-3S45.654,13,44,13z M44,17c-0.552,0-1-0.449-1-1s0.448-1,1-1   s1,0.449,1,1S44.552,17,44,17z"/></g><text x="0" y="79" fill="#000000" font-size="5px" font-weight="bold" font-family="'Helvetica Neue', Helvetica, Arial-Unicode, Arial, Sans-serif">Created by Eucalyp</text><text x="0" y="84" fill="#000000" font-size="5px" font-weight="bold" font-family="'Helvetica Neue', Helvetica, Arial-Unicode, Arial, Sans-serif">from the Noun Project</text></svg>