<svg xmlns="http://www.w3.org/2000/svg" xmlns:xlink="http://www.w3.org/1999/xlink" version="1.1" x="0px" y="0px" viewBox="0 0 24 30" style="enable-background:new 0 0 24 24;" xml:space="preserve"><path d="M9,20.5h6c0.276,0,0.5-0.224,0.5-0.5V4c0-0.276-0.224-0.5-0.5-0.5H9C8.724,3.5,8.5,3.724,8.5,4v16  C8.5,20.276,8.724,20.5,9,20.5z M9.5,4.5h5v15h-5V4.5z"/><path d="M4,19.5c-0.276,0-0.5,0.224-0.5,0.5s0.224,0.5,0.5,0.5h2.5V22c0,0.276,0.224,0.5,0.5,0.5h10c0.276,0,0.5-0.224,0.5-0.5v-1.5  H20c0.276,0,0.5-0.224,0.5-0.5s-0.224-0.5-0.5-0.5h-2.5v-3H20c0.276,0,0.5-0.224,0.5-0.5s-0.224-0.5-0.5-0.5h-2.5v-3H20  c0.276,0,0.5-0.224,0.5-0.5s-0.224-0.5-0.5-0.5h-2.5v-3H20c0.276,0,0.5-0.224,0.5-0.5S20.276,7.5,20,7.5h-2.5v-3H20  c0.276,0,0.5-0.224,0.5-0.5S20.276,3.5,20,3.5h-2.5V2c0-0.276-0.224-0.5-0.5-0.5H7C6.724,1.5,6.5,1.724,6.5,2v1.5H4  C3.724,3.5,3.5,3.724,3.5,4S3.724,4.5,4,4.5h2.5v3H4C3.724,7.5,3.5,7.724,3.5,8S3.724,8.5,4,8.5h2.5v3H4c-0.276,0-0.5,0.224-0.5,0.5  s0.224,0.5,0.5,0.5h2.5v3H4c-0.276,0-0.5,0.224-0.5,0.5s0.224,0.5,0.5,0.5h2.5v3H4z M7.5,2.5h9v19h-9V2.5z"/><text x="0" y="39" fill="#000000" font-size="5px" font-weight="bold" font-family="'Helvetica Neue', Helvetica, Arial-Unicode, Arial, Sans-serif">Created by Astatine Lab</text><text x="0" y="44" fill="#000000" font-size="5px" font-weight="bold" font-family="'Helvetica Neue', Helvetica, Arial-Unicode, Arial, Sans-serif">from the Noun Project</text></svg>