<?xml version="1.0" encoding="UTF-8"?>
<svg width="501px" height="198px" viewBox="0 0 501 198" version="1.1" xmlns="http://www.w3.org/2000/svg" xmlns:xlink="http://www.w3.org/1999/xlink">
    <title>ArduinoCommunityLogo_SVG</title>
    <g id="Page-1" stroke="none" stroke-width="1" fill="none" fill-rule="evenodd">
        <g id="ArduinoCommunityLogo_SVG" fill-rule="nonzero">
            <g id="Group">
                <path d="M132.23,47.898 L133.102,46.286 C125.016,41.979 116.698,39.153 108.333,37.958 C104.868,37.467 101.377,37.218 97.956,37.218 C70.358,37.218 45.668,53.819 36.516,78.526 L45.399,81.815 C53.18,60.806 74.302,46.691 97.957,46.691 C100.935,46.691 103.978,46.908 106.999,47.337 C123.036,49.628 138.446,58.376 152.802,73.337 L158.031,68.318 C150.967,60.769 142.346,53.37 132.23,47.898 Z" id="Path" fill="#62AEB2"></path>
                <path d="M67.472,158.516 C43.683,147.457 28.312,124.07 28.312,98.934 C28.312,86.218 32.039,73.912 39.088,63.346 C41.77,59.322 44.939,55.55 48.504,52.136 L52.871,56.698 C49.638,59.792 46.768,63.207 44.341,66.848 C37.986,76.374 34.626,87.468 34.626,98.933 C34.626,121.971 48.231,142.608 70.134,152.788 L67.472,158.516 Z" id="Path" fill="#62AEB2"></path>
                <path d="M183.354,106.689 L180.616,100.3 C180.366,99.807 180.021,99.146 179.603,98.367 C174.808,107.447 149.582,151.783 108.105,157.706 C104.718,158.19 101.225,159.298 97.922,159.298 C88.262,159.294 78.996,157.261 70.384,153.254 L67.222,159.049 C76.832,163.52 87.16,165.788 97.927,165.792 C101.578,165.792 105.324,165.521 109.061,164.987 C149.081,159.271 174.34,122.67 183.643,106.564 L183.354,106.689 Z" id="Path" fill="#62AEB2"></path>
                <path d="M192.128,137.549 C184.014,148.575 175.06,158.121 165.454,165.92 L167.772,168.774 C177.271,161.061 186.146,151.704 194.213,140.927 C210.722,163.452 238.19,190.172 278.007,195.856 L278.95,189.253 C238.254,183.442 210.997,154.667 194.79,130.178 C194.027,129.022 192.128,137.549 192.128,137.549 Z" id="Path" fill="#E47128"></path>
                <path d="M298.482,164.999 C293.226,165.343 287.877,165.144 282.511,164.377 C270.283,162.629 258.433,157.747 247.288,149.866 L243.823,154.764 C255.752,163.2 268.482,168.432 281.661,170.316 C285.627,170.883 289.628,171.17 293.552,171.17 C295.203,171.17 296.845,171.107 298.482,171.007 L298.482,164.999 L298.482,164.999 Z" id="Path" fill="#E5AD24"></path>
                <path d="M186.523,105.331 L183.353,106.689 L180.615,100.3 C178.564,96.262 170.879,82.041 158.031,68.317 L152.802,73.336 C164.07,85.078 170.839,96.717 173.227,101.176 L182.839,117.95 L191.056,113.239 L186.523,105.331 Z" id="Path" fill="#E47128"></path>
                <path d="M293.553,159.661 C290.148,159.661 286.695,159.413 283.29,158.923 C240.483,152.81 215.439,109.347 210.853,100.695 L217.476,97.185 C220.104,102.142 244.306,145.784 284.354,151.503 C287.41,151.942 290.502,152.166 293.552,152.166 L293.552,159.661 L293.553,159.661 Z" id="Path" fill="#62AEB2"></path>
                <path d="M353.199,82.234 C350.346,72.97 345.024,64.422 337.806,57.513 C328.347,48.465 316.335,42.681 303.068,40.787 L304.281,32.295 C319.332,34.442 332.975,41.02 343.737,51.315 C352.009,59.233 358.116,69.051 361.398,79.709 L353.199,82.234 Z" id="Path" fill="#00878F"></path>
                <path d="M238.607,54.945 L234.564,50.341 C249.124,37.554 264.966,29.863 281.653,27.483 C285.593,26.92 289.587,26.634 293.52,26.634 C313.84,26.634 332.877,34.141 347.124,47.773 L342.888,52.201 C329.787,39.666 312.255,32.762 293.521,32.762 C289.876,32.762 286.175,33.028 282.52,33.55 C267.031,35.759 252.257,42.958 238.607,54.945 Z" id="Path" fill="#00878F"></path>
                <path d="M207.48,114.622 L186.227,104.512 L191.282,93.885 C194.565,86.986 206.973,62.981 228.822,43.8 L237.666,36.036 L253.193,53.724 L244.349,61.488 C225.405,78.118 214.524,99.816 212.536,103.997 L207.48,114.622 Z" id="Path" fill="#E5AD24"></path>
                <path d="M27.581,127.311 C23.656,118.354 21.666,108.806 21.666,98.934 C21.666,79.379 29.567,61.054 43.914,47.332 C48.926,42.538 54.582,38.449 60.726,35.179 L64.181,41.669 C58.631,44.624 53.522,48.316 48.995,52.647 C36.113,64.967 29.018,81.406 29.018,98.934 C29.018,107.785 30.8,116.338 34.314,124.36 L27.581,127.311 Z" id="Path" fill="#00878F"></path>
                <path d="M52.907,56.738 L48.468,52.095 C61.605,39.533 79.181,32.615 97.957,32.615 C101.617,32.615 105.329,32.88 108.989,33.402 C117.953,34.683 126.801,37.66 135.286,42.248 L132.231,47.898 C124.415,43.672 116.29,40.935 108.08,39.761 C104.721,39.282 101.314,39.038 97.957,39.038 C80.843,39.039 64.844,45.325 52.907,56.738 Z" id="Path" fill="#E5AD24"></path>
                <path d="M8.919,98.934 L4.997,98.934 C4.997,74.788 14.726,52.185 32.392,35.289 L35.103,38.123 C18.218,54.272 8.919,75.868 8.919,98.934 Z" id="Path" fill="#E5AD24"></path>
                <path d="M164.118,31.892 C148.271,19.224 130.901,11.468 112.49,8.839 C107.668,8.151 102.778,7.803 97.957,7.803 C78.884,7.803 60.573,13.166 45.004,23.314 L42.149,18.933 C58.569,8.23 77.868,2.573 97.958,2.573 C103.025,2.573 108.164,2.939 113.23,3.662 C132.579,6.425 150.798,14.549 167.384,27.807 L164.118,31.892 Z" id="Path" fill="#00878F"></path>
                <path d="M200.901,65.84 L190.583,58.559 C207.089,35.163 235.607,6.013 277.729,-0.001 L279.514,12.501 C241.851,17.879 215.976,44.475 200.901,65.84 Z" id="Path" fill="#00878F"></path>
                <path d="M212.715,67.347 L205.414,61.827 C219.86,42.717 244.476,18.88 279.707,13.853 C284.289,13.198 288.937,12.866 293.52,12.866 C305.394,12.866 316.896,15.032 327.707,19.304 L324.344,27.816 C314.609,23.969 304.239,22.019 293.521,22.019 C289.37,22.019 285.158,22.321 281.001,22.915 C248.855,27.501 226.124,49.608 212.715,67.347 Z" id="Path" fill="#62AEB2"></path>
                <path d="M197.996,82.249 L187.781,78.091 L190.818,70.628 L191.08,70.215 C204.268,49.341 233.188,13.353 278.707,6.859 C283.622,6.157 288.606,5.801 293.52,5.801 L293.52,16.83 C289.126,16.83 284.666,17.149 280.266,17.777 C241.422,23.319 215.573,52.235 200.663,75.695 L197.996,82.249 Z" id="Path" fill="#62AEB2"></path>
                <path d="M197.822,70.945 L192.537,64.461 C183.754,52.014 173.918,41.399 163.302,32.912 L168.2,26.784 C179.36,35.706 189.679,46.822 198.867,59.824 L203.898,65.982 L197.822,70.945 Z" id="Path" fill="#62AEB2"></path>
                <path d="M360.146,34.169 C342.377,17.166 318.716,7.803 293.521,7.803 C288.704,7.803 283.815,8.152 278.991,8.839 L278.253,3.661 C283.32,2.938 288.458,2.572 293.522,2.572 C320.071,2.572 345.016,12.451 363.762,30.389 L360.146,34.169 Z" id="Path" fill="#E47128"></path>
                <path d="M111.215,180.084 L109.309,166.738 C162.671,159.12 189.26,96.965 189.522,96.338 C190.704,93.497 219.227,26.487 280.267,17.776 L282.171,31.122 C228.646,38.76 202.227,100.894 201.966,101.521 C200.78,104.371 172.239,171.371 111.215,180.084 Z" id="Path" fill="#00878F"></path>
                <path d="M55.146,166.592 L60.999,156.52 C75.361,164.864 92.005,167.977 109.134,165.526 L110.784,177.052 C121.942,175.459 132.844,171.639 143.185,165.699 L133.419,148.695 C125.243,153.391 116.693,156.401 108.006,157.641 C104.638,158.122 101.247,158.366 97.922,158.366 C80.941,158.365 65.067,152.123 53.224,140.79 C47.488,135.3 43.014,128.944 39.929,121.901 L23.096,129.274 C27.115,138.445 32.977,146.856 40.515,154.07 L39.667,154.956 C44.382,159.468 49.58,163.354 55.146,166.592 Z" id="Path" fill="#00878F"></path>
                <path d="M97.927,183.103 C74.541,183.102 52.594,174.421 36.122,158.662 L39.823,154.794 C55.294,169.597 75.927,177.749 97.921,177.75 C102.161,177.75 106.475,177.44 110.748,176.829 C154.755,170.544 181.355,133.304 193.33,111.572 L196.367,104.384 L201.299,106.468 L198.088,114.032 C185.664,136.62 157.895,175.504 111.506,182.128 C106.982,182.774 102.414,183.103 97.927,183.103 Z" id="Path" fill="#00878F"></path>
                <path d="M97.927,197.585 C70.788,197.581 45.286,187.473 26.112,169.122 L32.891,162.038 C50.232,178.635 73.327,187.776 97.922,187.78 C102.641,187.78 107.432,187.436 112.165,186.758 C130.509,184.137 147.787,176.326 163.522,163.542 L169.704,171.151 C152.57,185.071 133.679,193.588 113.554,196.463 C108.363,197.207 103.105,197.585 97.927,197.585 Z" id="Path" fill="#00878F"></path>
                <path d="M112.601,189.789 L111.388,181.297 C150.921,175.652 177.077,146.238 192.071,122.525 C192.53,121.729 196.567,114.724 198.113,111.784 L205.707,115.776 C203.995,119.031 199.642,126.57 199.457,126.889 L199.37,127.035 C183.417,152.288 155.415,183.676 112.601,189.789 Z" id="Path" fill="#E5AD24"></path>
                <path d="M55.458,166.057 C30.845,151.765 16.151,126.672 16.151,98.934 C16.151,94.898 16.468,90.851 17.095,86.907 L23.146,87.868 C22.571,91.496 22.278,95.219 22.278,98.934 C22.278,124.463 35.832,147.576 58.534,160.758 L55.458,166.057 Z" id="Path" fill="#62AEB2"></path>
                <path d="M25.933,88.309 L14.31,86.465 C17.674,65.27 29.39,46.541 47.301,33.73 C65.492,20.717 88.143,15.35 111.097,18.625 C116.266,19.364 121.415,20.57 126.404,22.209 L122.73,33.389 C118.395,31.965 113.921,30.917 109.433,30.275 C68.706,24.478 32.02,49.957 25.933,88.309 Z" id="Path" fill="#E47128"></path>
                <path d="M24.418,170.893 C13.687,160.626 5.56,148.567 0.262,135.05 L13.953,129.683 C18.467,141.198 25.408,151.488 34.584,160.267 L24.418,170.893 Z" id="Path" fill="#E5AD24"></path>
                <path d="M97.927,190.842 C72.533,190.839 48.686,181.396 30.77,164.251 C14.463,148.646 4.574,127.867 2.923,105.744 L2.914,105.585 L2.672,99.094 L11.244,98.774 L11.483,105.184 C12.993,125.162 21.947,143.934 36.701,158.054 C53.013,173.663 74.755,182.261 97.922,182.264 C102.375,182.264 106.904,181.939 111.387,181.297 L112.602,189.789 C107.718,190.487 102.78,190.842 97.927,190.842 Z" id="Path" fill="#62AEB2"></path>
                <path d="M137.312,160.852 L134.647,156.208 L136.968,154.876 C167.242,137.497 184.154,104.274 187.237,97.791 L188.386,95.374 L193.22,97.673 L192.071,100.09 C188.869,106.825 171.29,141.348 139.634,159.519 L137.312,160.852 Z" id="Path" fill="#E5AD24"></path>
                <path d="M204.194,95.418 C203.926,94.775 202.017,90.272 198.386,83.689 L199.749,82.938 C187.122,60.024 158.902,20.58 111.776,13.853 C107.192,13.198 102.542,12.866 97.956,12.866 L97.956,22.018 C102.11,22.018 106.324,22.32 110.482,22.914 C115.577,23.642 120.426,24.809 125.053,26.313 L121.705,36.492 C165.205,50.8 187.08,101.946 187.291,102.448 C188.497,105.347 217.54,173.567 279.924,182.471 L282.51,164.35 C230.533,156.931 204.448,96.022 204.194,95.418 Z" id="Path" fill="#00878F"></path>
                <path d="M375.917,98.934 L368.563,98.934 C368.563,78.684 359.628,59.319 344.049,45.804 C327.313,31.285 304.604,24.831 281.737,28.089 L280.7,20.81 C305.673,17.246 330.521,24.333 348.868,40.249 C366.058,55.161 375.917,76.551 375.917,98.934 Z" id="Path" fill="#E5AD24"></path>
                <rect id="Rectangle" fill="#E5AD24" x="88.648" y="68.091" width="19.887" height="61.699"></rect>
                <rect id="Rectangle" fill="#00878F" x="67.743" y="88.998" width="61.695" height="19.89"></rect>
                <path d="M394.156,107.922 L386.297,107.193 C386.548,104.479 386.676,101.701 386.676,98.933 C386.676,74.725 376.927,52.067 359.225,35.13 L364.682,29.427 C383.954,47.866 394.569,72.551 394.569,98.933 C394.568,101.942 394.43,104.967 394.156,107.922 Z" id="Path" fill="#62AEB2"></path>
                <path d="M367.115,112.515 L361.984,111.495 C362.808,107.347 363.226,103.084 363.226,98.826 C363.226,81.008 356.016,64.296 342.925,51.769 L346.54,47.99 C360.673,61.513 368.456002,79.567 368.456002,98.826 C368.457,103.426 368.005,108.031 367.115,112.515 Z" id="Path" fill="#00878F"></path>
                <path d="M358.13,113.774 L346.255,110.747 C347.233,106.913 347.728,102.938 347.729,98.933 C347.729,70.894 323.412,48.082 293.521,48.082 C290.611,48.082 287.635,48.295 284.676,48.714 C283.893,48.826 283.112,48.955 282.334,49.098 L280.123,37.043 C281.061,36.871 282,36.717 282.95,36.581 C286.482,36.08 290.037,35.826 293.52,35.826 C330.168,35.826 359.984,64.137 359.984,98.933 C359.983,103.96 359.359,108.952 358.13,113.774 Z" id="Path" fill="#E47128"></path>
                <path d="M259.94,50.847 L258.527,48.298 C230.391,63.896 213.921,94.428 210.904,100.391 L207.925,106.455 L204.774,104.906 L203.475,107.791 L214.655,112.811 L219.667,101.649 C222.615,96.186 245.506,55.884 282.34,49.097 L281.232,43.081 C274,44.417 266.851,47.019 259.94,50.847 Z" id="Path" fill="#00878F"></path>
                <path d="M293.553,185.94 C288.934,185.94 284.229,185.602 279.569,184.936 C258.764,181.965 239.461,172.298 222.194,156.205 L229.714,148.137 C245.3,162.664 262.599,171.372 281.129,174.019 C286.08,174.725 291.054,174.995 295.941,174.88 L296.199,185.907 C295.316,185.928 294.436,185.94 293.553,185.94 Z" id="Path" fill="#62AEB2"></path>
            </g>
            <g id="Group" transform="translate(307.000000, 138.000000)" fill="#00878F">
                <path d="M0.882,28.6065 L9.6825,0.5625 L17.4915,0.5625 L26.4225,28.6065 L19.0455,28.6065 L17.4915,22.869 L9.4245,22.869 L8.001,28.6065 L0.882,28.6065 Z M13.3065,7.2075 L10.7625,17.4765 L16.068,17.4765 L13.3065,7.2075 Z" id="Shape"></path>
                <path d="M30.8685,0.5625 L42.1725,0.5625 C49.938,0.5625 52.872,4.5315 52.872,9.9255 C52.872,13.7655 51.3195,16.6995 48.2565,18.3375 L53.7345,28.6065 L45.537,28.6065 L41.31,19.719 L37.815,19.719 L37.815,28.6065 L30.8685,28.6065 L30.8685,0.5625 Z M45.495,9.969 C45.495,7.467 44.589,6.216 41.352,6.216 L37.815,6.216 L37.815,14.154 L41.4825,14.154 C43.899,14.154 45.495,13.0755 45.495,9.969 Z" id="Shape"></path>
                <path d="M58.485,0.5625 L67.674,0.5625 C78.1575,0.5625 81.6525,5.526 81.6525,14.3265 C81.6525,20.9715 79.6245,28.608 67.7175,28.608 L58.485,28.608 L58.485,0.5625 Z M65.4315,6.216 L65.4315,22.8705 L68.0625,22.8705 C73.8015,22.8705 74.232,19.3755 74.232,14.6295 C74.232,9.1515 73.671,6.2175 67.458,6.2175 L65.4315,6.2175 L65.4315,6.216 Z" id="Shape"></path>
                <path d="M102.192,0.5625 L108.879,0.5625 L108.879,18.9855 C108.879,27.2685 102.537,29.0385 97.5765,29.0385 C92.787,29.0385 86.661,27.4425 86.661,18.942 L86.661,0.5625 L93.6075,0.5625 L93.6075,17.649 C93.6075,22.308 95.247,23.3865 97.8795,23.3865 C101.0295,23.3865 102.1935,21.963 102.1935,17.691 L102.1935,0.5625 L102.192,0.5625 Z" id="Path"></path>
                <polygon id="Path" points="115.0935 22.869 122.3415 22.869 122.3415 6.3015 115.0935 6.3015 115.0935 0.5625 136.5795 0.5625 136.5795 6.3015 129.288 6.3015 129.288 22.869 136.5795 22.869 136.5795 28.6065 115.0935 28.6065"></polygon>
                <polygon id="Path" points="148.8795 28.6065 142.3215 28.6065 142.3215 0.5625 149.8725 0.5625 158.9745 17.3895 158.9745 0.5625 165.4455 0.5625 165.4455 28.6065 158.4135 28.6065 148.8345 10.659"></polygon>
                <path d="M193.839,14.586 C193.839,22.6965 190.863,29.04 181.845,29.04 C173.7765,29.04 170.0655,24.1635 170.0655,14.8875 C170.0655,6.4305 173.301,0.174 181.8015,0.174 C189.7815,0.174 193.839,3.885 193.839,14.586 Z M186.462,14.586 C186.462,7.7265 185.901,5.8275 181.803,5.8275 C178.092,5.8275 177.4455,8.028 177.4455,14.8875 C177.4455,20.5395 177.834,23.3865 181.8465,23.3865 C185.901,23.3865 186.462,21.057 186.462,14.586 Z" id="Shape"></path>
            </g>
        </g>
    </g>
</svg>